<?xml version="1.0" encoding="utf-8"?>
<!-- Generator: Adobe Illustrator 16.0.0, SVG Export Plug-In . SVG Version: 6.00 Build 0)  -->
<!DOCTYPE svg PUBLIC "-//W3C//DTD SVG 1.1//EN" "http://www.w3.org/Graphics/SVG/1.1/DTD/svg11.dtd">
<svg version="1.1" xmlns="http://www.w3.org/2000/svg" xmlns:xlink="http://www.w3.org/1999/xlink" x="0px" y="0px"
	 width="529.309px" height="588.57px" viewBox="0 0 529.309 588.57" enable-background="new 0 0 529.309 588.57"
	 xml:space="preserve">
<g>
</g>
<g id="Layer_1">
	<g id="behind_header">
		<path fill="#FAA21B" d="M-1773.122-1042.621l1.681,1.96c3.92,3.64,4.76,9.8-1.96,16.52c-12.88,13.16-14.28,52.08-17.08,89.319
			c47.6-47.599,115.359-99.119,124.6-106.119c5.319-3.92,10.92,0.84,8.399,6.16c-0.279,1.96-1.68,3.64-3.64,5.6
			c-19.134,17.267-41.572,106.671-48.521,160.461c-0.463,3.586-0.857,7.014-1.177,10.251c-1.649,27.354-3.649,58.354,16.351,79.354
			c5,5,11-1,14,0c8,2,0,17-7,16c-41-3-48-57-47.078-90.644c0.131-4.042,0.39-8.181,0.765-12.394
			c4.13-46.34,22.4-101.709,41.021-137.829c-26.693,22.33-63.974,54.541-91.785,81.538c-2.528,2.454-4.979,4.865-7.335,7.222
			c-4.587,27.106-12.587,89.106-41.587,73.106c-25-13,11-52,25.366-73.924c0.131-3.512,0.249-7.115,0.361-10.788
			c1.05-33.013,1.579-71.694,9.14-95.634c-48.439,38.08-97.439,172.479-124.88,172.479c-8.68,0-8.68-11.199-0.56-11.199
			c19.32,0,61.6-122.64,111.72-166.88c-52.36,10.92-118.439,40.88-118.439,70.84c0,19.88-22.4,17.36-22.4,4.2
			c0-49.28,113.399-87.92,169.399-90.44c0.28,0,0.561-0.28,1.12-0.28c1.4-0.28,2.8-0.28,3.92-0.28h0.84
			C-1775.922-1044.021-1774.241-1043.461-1773.122-1042.621z M-1809.246-895.327c-9.223,14.212-26.223,33.212-18.223,43.212
			c9,11,12-23,16.935-34.451C-1810.053-889.461-1809.627-892.379-1809.246-895.327z"/>
		<path fill="#FAA21B" d="M-1616.882-967.582c13.439,0,17.92,8.4,17.92,18.2c0,11.899-7.56,27.37-18.41,39.865
			c-2.174,2.529-4.479,4.939-6.887,7.209c-10.21,9.192-22.21,21.192-37.21,16.192c-3,16,7,35,25,30c15-5,22-18,32.693-28.079
			c2.218-2.463,4.314-4.941,6.266-7.39c3.903-4.896,7.229-9.708,9.748-13.838c1.399-2.24,3.359-3.08,5.04-3.08
			c2.8,0,5.6,1.96,5.6,5.32c0,1.12-0.28,2.239-1.12,3.64c-3.149,5.46-8.387,13.833-15.488,22.168
			c-2.372,2.808-4.951,5.611-7.706,8.37c-12.032,11.889-26.032,25.889-44.032,24.889c-22-2-36-22-36.63-43.428
			c-0.033-3.642,0.296-7.286,0.92-10.979C-1675.622-931.294-1646.365-967.582-1616.882-967.582z M-1659.125-898.215
			c6.656,1.1,13.656-1.9,19.182-6.057c2.705-1.867,5.341-4.02,7.852-6.405c12.523-11.689,21.93-29.08,21.93-38.705
			c0-4.2-0.56-7-5.319-7c-11.761,0-26.04,17.955-35.753,37.8c-1.619,3.308-3.113,6.691-4.454,10.086
			C-1657.028-905.102-1658.193-901.664-1659.125-898.215z"/>
		<path fill="#FAA21B" d="M-1547.725-984.102c21,0,49.56,27.16,49.56,67.199c0,32.48-25.76,67.2-57.96,67.2
			c-35.84,0-35.56-28-30.52-34.439c3.64-4.48,14.28-5.04,10.359,3.92c-5.039,11.479,5.32,18.76,16.521,18.76
			c18.76,0,39.199-23.8,39.199-56.28c0-22.119-8.959-36.399-17.359-45.359l-40.32,63.56c-4.199,6.72-13.159,0.28-9.52-5.88
			c2.8-4.76,34.72-53.479,42-64.68c-2.24-1.68-4.2-2.52-5.32-3.359C-1557.805-977.102-1556.125-984.102-1547.725-984.102z"/>
		<path fill="#FAA21B" d="M-1492.846-877.422c0-23.24,16.8-77.56,19.6-84c1.681-4.199,5.88-6.16,9.8-6.16
			c5.881,0,11.761,3.92,11.761,9.801c0,1.119,0,2.52-0.561,3.64c-5.88,15.96-26.6,58.239-26.6,81.76
			c0,7.279,1.68,11.479,4.479,11.479c13.16,0,37.521-38.08,41.16-44.52c1.4-2.24,3.36-3.08,5.04-3.08c2.8,0,5.6,1.96,5.6,5.32
			c0,1.12-0.279,2.239-1.12,3.64c-5.039,8.96-31.079,49.84-50.68,49.84C-1485.846-849.702-1492.846-860.063-1492.846-877.422z
			 M-1450.846-1012.662c6.72,0,12.319,5.6,12.319,12.32c0,6.72-5.6,12.04-12.319,12.04s-12.04-5.32-12.04-12.04
			C-1462.886-1007.062-1457.565-1012.662-1450.846-1012.662z"/>
		<path fill="#FAA21B" d="M-1368.249-876.862c0-3.08,0.279-6.72,0.56-10.92c-12.88,21-28.84,38.08-45.08,38.08
			c-15.399,0-23.8-13.44-23.8-34.16c0-38.92,34.16-83.72,74.2-83.72c23.239,0,27.439,15.12,27.439,19.601
			c0,3.08-2.239,4.76-4.76,5.04c2.8,1.68,4.76,4.479,4.76,7.84c0,1.12,0,2.52-0.56,3.64c-5.88,15.96-18.48,43.4-18.48,59.64
			c0,7.28,1.681,10.92,4.48,10.92c13.16,0,37.52-38.08,41.16-44.52c1.399-2.24,3.359-3.08,5.039-3.08c2.801,0,5.601,1.96,5.601,5.32
			c0,1.12-0.28,2.239-1.12,3.64c-5.04,8.96-31.08,49.84-50.68,49.84C-1360.97-849.702-1368.249-859.502-1368.249-876.862z
			 M-1346.689-944.901c0.561,0,1.4,0,2.24,0.279c-3.36-3.64-4.2-11.76-13.72-11.76c-30.521,0-60.76,55.72-60.76,84.84
			c0,8.96,4.76,10.64,7.84,10.64c17.08,0,44.52-46.479,52.079-69.72l1.4-5.319C-1356.489-942.102-1351.449-944.901-1346.689-944.901
			z M-1382.249-1004.821c6.72,0,12.319,5.6,12.319,12.32c0,6.72-5.6,12.04-12.319,12.04s-12.04-5.32-12.04-12.04
			C-1394.289-999.222-1388.969-1004.821-1382.249-1004.821z M-1343.05-1004.821c6.721,0,12.32,5.6,12.32,12.32
			c0,6.72-5.6,12.04-12.32,12.04c-6.72,0-12.039-5.32-12.039-12.04C-1355.089-999.222-1349.77-1004.821-1343.05-1004.821z"/>
		<path fill="#FAA21B" d="M-1312.249-877.422c0-23.24,16.8-77.56,19.6-84c1.681-4.199,5.88-6.16,9.8-6.16
			c5.88,0,11.761,3.92,11.761,9.801c0,1.119,0,2.52-0.561,3.64c-5.88,15.96-26.6,58.239-26.6,81.76
			c0,7.279,1.68,11.479,4.479,11.479c13.16,0,37.521-38.08,41.16-44.52c1.4-2.24,3.36-3.08,5.04-3.08c2.8,0,5.6,1.96,5.6,5.32
			c0,1.12-0.279,2.239-1.12,3.64c-5.039,8.96-31.079,49.84-50.68,49.84C-1305.249-849.702-1312.249-860.063-1312.249-877.422z
			 M-1270.249-1012.662c6.72,0,12.319,5.6,12.319,12.32c0,6.72-5.6,12.04-12.319,12.04c-6.721,0-12.04-5.32-12.04-12.04
			C-1282.289-1007.062-1276.97-1012.662-1270.249-1012.662z"/>
		<path fill="#FAA21B" d="M-1252.893-861.462l-3.359,8.12c-0.841,2.52-3.08,3.64-5.32,3.64c-3.36,0-5.6-2.8-5.6-5.6
			c0-0.561,0-1.12,0.279-1.681l30.24-102.759c1.4-4.761,6.16-7.841,10.92-7.841c6.72,0,10.92,5.601,10.92,11.2
			c0,1.12-0.28,4.2-0.84,4.2l-12.6,30.24c17.64-23.521,39.199-45.641,58.52-45.641c11.479,0,15.68,6.44,15.68,15.96
			c0,10.08-4.749,23.834-10.447,37.587c-1.425,3.438-2.908,6.879-4.384,10.281c-7.585,13.639-9.585,30.639-9.585,46.639
			c14-3,17-20,25.95-28.804c1.275-1.738,2.503-3.45,3.661-5.099c4.636-6.596,8.151-12.258,9.364-14.404
			c1.4-2.24,3.36-3.08,5.04-3.08c2.8,0,5.601,1.96,5.601,5.32c0,1.12-0.28,2.239-1.12,3.64c-1.89,3.36-6.733,11.209-13.082,19.707
			c-2.117,2.833-4.391,5.741-6.716,8.609c-8.698,10.11-15.698,28.11-30.698,24.11c-26-6-16-45-8.434-63.678
			c1.537-3.462,3.144-6.841,4.75-10.099c8.05-16.24,16.1-29.47,16.1-33.811c0-1.119-0.84-1.68-1.68-1.68
			c-17.15,0-41.737,30.844-60.022,57.873c-1.214,1.814-2.403,3.603-3.562,5.364c-4.152,6.029-8.152,13.029-12.108,19.121
			c-1.677,2.746-3.159,5.221-4.415,7.341C-1251.094-864.56-1252.123-862.792-1252.893-861.462z"/>
		<path fill="#FAA21B" d="M-1076.775-967.582c13.44,0,17.92,8.4,17.92,18.2c0,23.8-30.24,61.88-56.56,61.88c-2.24,0-4.2,0-6.16-0.56
			c-0.56,3.079-0.84,5.6-0.84,8.119c0,12.88,7.56,18.48,20.439,18.48c21.28,0,44.24-27.44,54.32-43.96
			c1.399-2.24,3.359-3.08,5.04-3.08c2.8,0,5.6,1.96,5.6,5.32c0,1.12-0.28,2.239-1.12,3.64c-8.399,14.56-31.64,49.84-65.52,49.84
			c-22.68,0-38.359-14.28-38.359-38.08C-1142.015-922.782-1109.535-967.582-1076.775-967.582z M-1119.056-898.702h2.521
			c22.399,0,46.479-35.279,46.479-50.68c0-4.2-0.56-7-5.319-7C-1091.056-956.382-1111.215-924.462-1119.056-898.702z"/>
		<path fill="#FAA21B" d="M-1047.938-861.462l-3.359,8.12c-0.84,2.52-3.08,3.64-5.32,3.64c-3.36,0-5.6-2.8-5.6-5.6
			c0-0.561,0-1.12,0.279-1.681l30.24-102.759c1.4-4.761,6.16-7.841,10.92-7.841c6.72,0,10.92,5.601,10.92,11.2
			c0,1.12-0.28,4.2-0.84,4.2l-12.6,30.24c17.64-23.521,39.199-45.641,58.52-45.641c11.479,0,15.68,6.44,15.68,15.96
			c0,2.521-0.296,5.268-0.794,8.183c-3.576,21.324-13.576,39.324-22.47,58.785c-1.251,2.935-2.38,5.687-3.329,8.207
			c-1.899,5.04-3.087,9.161-3.087,11.905c0,2.24,0.84,3.64,3.08,3.64c2.193,0,4.698-1.058,7.365-2.851
			c2.68-1.831,5.522-4.396,8.457-7.402c15.407-8.96,37.407-46.96,41.407-31.96c4,17-27,31-41.751,46.886
			c-2.638,1.986-5.282,3.618-7.88,4.753c-2.598,1.136-5.148,1.774-7.599,1.774c-13.44,0-19.601-8.4-19.601-19.32
			c0-32.76,32.2-76.999,32.2-85.68c0-1.119-0.84-1.68-1.68-1.68C-992.219-956.382-1038.698-877.422-1047.938-861.462z"/>
	</g>
	<g>
		<linearGradient id="SVGID_1_" gradientUnits="userSpaceOnUse" x1="490.0576" y1="469.5645" x2="520.9004" y2="469.5645">
			<stop  offset="0" style="stop-color:#F7941E"/>
			<stop  offset="1" style="stop-color:#FDB913"/>
		</linearGradient>
		<path fill="url(#SVGID_1_)" d="M505.551,409.217c0,17.637-36.744,146.973,2.939,129.336c17.637-8.818,11.758-49.971,10.287-64.668
			c-2.939-19.106-5.879-60.259-14.697-74.956"/>
		<g>
			<path fill="#FCB22C" d="M503.051,409.217c-0.173,17.384-35.48,138.234,0.781,133.314c25.166-3.415,19.963-44.399,18.196-61.557
				c-1.377-13.375-3.19-26.742-5.001-40.065c-1.931-14.204-3.475-30.583-10.788-43.242c-1.612-2.79-5.933-0.273-4.317,2.523
				c4.691,8.121,6.336,18.055,7.979,27.162c2.02,11.188,3.306,22.499,4.686,33.779c2.104,17.206,4.857,34.534,3.414,51.918
				c-0.67,8.059-2.545,18.345-10.01,22.935c-2.999,1.845-7.579,2.662-10.391,0.115c-3.074-2.786-3.945-7.836-4.466-11.727
				c-0.854-6.39-0.657-12.926-0.28-19.343c1.123-19.138,4.765-38.126,8.4-56.915c1.543-7.979,3.17-15.942,4.665-23.931
				c0.915-4.889,2.082-9.972,2.132-14.968C508.082,405.991,503.082,405.994,503.051,409.217L503.051,409.217z"/>
		</g>
	</g>
	<g>
		<linearGradient id="SVGID_2_" gradientUnits="userSpaceOnUse" x1="146.8105" y1="588.5703" x2="177.6543" y2="588.5703">
			<stop  offset="0" style="stop-color:#F7941E"/>
			<stop  offset="1" style="stop-color:#FDB913"/>
		</linearGradient>
		<path fill="url(#SVGID_2_)" d="M162.304,528.223c0,17.637-36.743,146.973,2.939,129.336c17.637-8.818,11.758-49.971,10.288-64.668
			c-2.939-19.106-5.879-60.259-14.697-74.956"/>
		<g>
			<path fill="#FCB22C" d="M159.804,528.223c-0.173,17.384-35.479,138.234,0.782,133.314c25.166-3.415,19.963-44.399,18.195-61.557
				c-1.377-13.375-3.19-26.742-5.001-40.065c-1.931-14.204-3.475-30.583-10.788-43.242c-1.611-2.79-5.933-0.273-4.316,2.523
				c4.691,8.121,6.335,18.055,7.979,27.161c2.02,11.189,3.305,22.5,4.685,33.78c2.104,17.206,4.858,34.534,3.414,51.917
				c-0.67,8.06-2.544,18.346-10.009,22.936c-3,1.844-7.58,2.662-10.391,0.115c-3.074-2.786-3.945-7.836-4.467-11.727
				c-0.854-6.391-0.656-12.926-0.28-19.342c1.123-19.139,4.765-38.127,8.4-56.916c1.544-7.979,3.171-15.942,4.665-23.932
				c0.915-4.889,2.082-9.971,2.132-14.967C164.836,524.997,159.836,525,159.804,528.223L159.804,528.223z"/>
		</g>
	</g>
	<g>
		<linearGradient id="SVGID_3_" gradientUnits="userSpaceOnUse" x1="-3251.4224" y1="-374.8857" x2="-3220.5791" y2="-374.8857">
			<stop  offset="0" style="stop-color:#F7941E"/>
			<stop  offset="1" style="stop-color:#FDB913"/>
		</linearGradient>
		<path fill="url(#SVGID_3_)" d="M-3235.929-435.234c0,17.637-36.743,146.973,2.939,129.336
			c17.637-8.818,11.758-49.971,10.288-64.668c-2.939-19.105-5.879-60.258-14.697-74.955"/>
		<g>
			<path fill="#FCB22C" d="M-3238.429-435.234c-0.172,17.385-35.48,138.234,0.782,133.314c25.166-3.414,19.962-44.398,18.196-61.557
				c-1.377-13.375-3.191-26.741-5.001-40.064c-1.93-14.205-3.475-30.584-10.788-43.242c-1.612-2.791-5.933-0.273-4.317,2.523
				c4.691,8.121,6.335,18.055,7.979,27.161c2.019,11.188,3.305,22.499,4.685,33.78c2.104,17.206,4.858,34.533,3.414,51.917
				c-0.67,8.06-2.544,18.345-10.009,22.935c-3,1.845-7.58,2.662-10.391,0.115c-3.075-2.785-3.945-7.836-4.466-11.727
				c-0.855-6.39-0.657-12.925-0.281-19.342c1.123-19.139,4.765-38.127,8.4-56.916c1.544-7.979,3.171-15.941,4.666-23.931
				c0.915-4.889,2.082-9.972,2.131-14.968C-3233.397-438.459-3238.397-438.457-3238.429-435.234L-3238.429-435.234z"/>
		</g>
	</g>
	<g>
		<linearGradient id="SVGID_4_" gradientUnits="userSpaceOnUse" x1="710.2754" y1="-1572.9209" x2="741.1182" y2="-1572.9209">
			<stop  offset="0" style="stop-color:#F7941E"/>
			<stop  offset="1" style="stop-color:#FDB913"/>
		</linearGradient>
		<path fill="url(#SVGID_4_)" d="M725.768-1633.269c0,17.637-36.742,146.973,2.939,129.336
			c17.637-8.818,11.758-49.971,10.289-64.668c-2.939-19.106-5.879-60.259-14.697-74.956"/>
		<g>
			<path fill="#FCB22C" d="M723.268-1633.269c-0.172,17.384-35.479,138.234,0.783,133.314c25.166-3.415,19.962-44.399,18.195-61.556
				c-1.377-13.375-3.191-26.742-5.002-40.065c-1.93-14.205-3.475-30.583-10.787-43.242c-1.611-2.79-5.934-0.273-4.317,2.523
				c4.691,8.121,6.335,18.055,7.979,27.162c2.019,11.189,3.305,22.5,4.684,33.78c2.105,17.207,4.859,34.534,3.414,51.917
				c-0.67,8.059-2.544,18.345-10.008,22.935c-3,1.844-7.58,2.662-10.391,0.115c-3.075-2.786-3.945-7.836-4.467-11.727
				c-0.855-6.39-0.657-12.925-0.281-19.342c1.123-19.138,4.766-38.126,8.4-56.916c1.545-7.979,3.172-15.942,4.666-23.931
				c0.914-4.889,2.082-9.971,2.131-14.967C728.3-1636.494,723.3-1636.491,723.268-1633.269L723.268-1633.269z"/>
		</g>
	</g>
	<g>
		<linearGradient id="SVGID_5_" gradientUnits="userSpaceOnUse" x1="996.3564" y1="-1542.3828" x2="1027.2002" y2="-1542.3828">
			<stop  offset="0" style="stop-color:#F7941E"/>
			<stop  offset="1" style="stop-color:#FDB913"/>
		</linearGradient>
		<path fill="url(#SVGID_5_)" d="M1011.85-1602.73c0,17.637-36.742,146.973,2.939,129.336c17.637-8.818,11.758-49.971,10.289-64.668
			c-2.939-19.106-5.879-60.259-14.697-74.956"/>
		<g>
			<path fill="#FCB22C" d="M1009.35-1602.73c-0.172,17.384-35.479,138.234,0.783,133.314c25.166-3.415,19.962-44.399,18.195-61.556
				c-1.377-13.375-3.191-26.742-5.002-40.065c-1.93-14.205-3.475-30.583-10.787-43.242c-1.611-2.79-5.934-0.273-4.317,2.523
				c4.691,8.121,6.335,18.055,7.979,27.162c2.019,11.189,3.305,22.5,4.684,33.78c2.105,17.207,4.859,34.534,3.414,51.917
				c-0.67,8.059-2.544,18.345-10.008,22.935c-3,1.844-7.58,2.662-10.391,0.115c-3.075-2.786-3.945-7.836-4.467-11.727
				c-0.855-6.39-0.657-12.925-0.281-19.342c1.123-19.138,4.766-38.126,8.4-56.916c1.545-7.979,3.172-15.942,4.666-23.931
				c0.914-4.889,2.082-9.971,2.131-14.967C1014.382-1605.956,1009.382-1605.953,1009.35-1602.73L1009.35-1602.73z"/>
		</g>
	</g>
	<g id="logo">
		<linearGradient id="SVGID_6_" gradientUnits="userSpaceOnUse" x1="-2136.2241" y1="-904.7451" x2="-2081.3149" y2="-904.7451">
			<stop  offset="0" style="stop-color:#F7941E"/>
			<stop  offset="1" style="stop-color:#FBB040"/>
		</linearGradient>
		<rect x="-2136.224" y="-932.199" fill="url(#SVGID_6_)" width="54.909" height="54.908"/>
		<linearGradient id="SVGID_7_" gradientUnits="userSpaceOnUse" x1="-2443.0488" y1="-920.3916" x2="-2003.8428" y2="-920.3916">
			<stop  offset="0" style="stop-color:#F7941E"/>
			<stop  offset="1" style="stop-color:#FDB913"/>
		</linearGradient>
		<path fill="url(#SVGID_7_)" d="M-2261.016-932.199h54.908v54.908h-54.908V-932.199z M-2324.469-868.115c5,3,5,9,9,13
			c0.403,0.504,0.806,1.023,1.208,1.545v-101.742l101.965-71.312c-1.792-5.598-3.474-11.253-5.029-16.979l-104.301,73.134h-41.811
			c9.057,33.139,20.13,65.744,38.967,96.354C-2323.469-872.115-2325.469-869.115-2324.469-868.115z M-2108.469-662.115c-2-2-4-4-5-5
			c-43-25-78-55-118-86c-2-1-4-5-6-6c-2.786-2.786-5.572-5.571-8.357-8.357h-68.434v-86.098c-0.403-0.521-0.806-1.041-1.208-1.545
			c-4-4-4-10-9-13c-1-1,1-4,0-6c-18.836-30.609-29.91-63.215-38.967-96.354h-27.363l22.942-16.747
			c-8.161-31.795-15.364-63.853-26.612-94.899c-1-4,1-8,0-12c-2.515-6.917-4.634-13.835-6.358-21l-21.095,12.179
			c-13.071,7.553-21.127,21.5-21.127,36.594v267.393c0,15.098,8.056,29.047,21.127,36.596l231.562,133.689
			c6.539,3.773,13.837,5.662,21.128,5.662c7.294,0,14.591-1.889,21.13-5.656l50.318-29.051c-1.59-1.411-3.154-2.876-4.685-4.406
			C-2103.469-663.115-2106.469-661.115-2108.469-662.115z M-2003.843-711.947c-21.418-16.246-40.715-34.955-58.604-55.525h-87.088
			v-54.91h-53.244v54.91h-43.047c2.786,2.786,5.572,5.571,8.357,8.357c2,1,4,5,6,6c40,31,75,61,118,86c1,1,3,3,5,5c2,1,5-1,6,0
			c1.53,1.53,3.094,2.995,4.685,4.406l74.254-42.871L-2003.843-711.947z M-2394.469-1082.115
			c11.249,31.046,18.452,63.104,26.612,94.899l140.847-102.813c-6.158-42.989-3.836-86.122,4.003-127.752l-177.82,102.665
			c1.725,7.166,3.843,14.083,6.358,21C-2393.469-1090.115-2395.469-1086.115-2394.469-1082.115z"/>
		<path fill="#FCB22C" d="M-1932.896-1039.08c16.355-63.856,10.268-66.2-78.736,14.89c83.107-84.494,51.006-71.442,7.789-81.806
			c32.496,4.174,58.357-13.653,42.98-23.573c0.904,1.564-7.137-3.078-15.713-8.029c-68.611-39.613-171.527-99.032-171.527-99.032
			c-6.535-3.773-13.833-5.663-21.13-5.663c-7.291,0-14.589,1.89-21.128,5.663l-32.647,18.849
			c-7.839,41.63-10.161,84.763-4.003,127.752l53.248-38.869l65.825,46.82v-43.131h49.916v77.646c0,0,3.02,2.142,8.055,5.711
			c5.032,3.569,12.079,8.566,20.132,14.277c8.055,5.71,17.115,12.135,26.15,18.626c9.084,6.357,18.145,12.782,26.199,18.494
			c16.105,11.421,28.188,19.986,28.188,19.986h-75.828l-78.529-56.571l-4.282-3.211l-62.772-46.038l-46.614,32.686
			c1.555,5.725,3.236,11.38,5.029,16.979l41.781-29.221l137.451,100.185v188.188h-29.384c17.89,20.57,37.187,39.279,58.604,55.525
			l87.303-50.406c13.078-7.553,21.135-21.498,21.135-36.596c0,0,0-185.689,0-247.586c0-6.19,0-11.142,0.285-13.983
			c-0.285-3.967-0.285-5.824,1.18-3.301c-1.465-7.554-2.359-12.459,2.975-5.428c-8.689-16.196-11.15-20.457-7.113,3.861
			C-1908.38-1097.192-1912.181-1100.42-1932.896-1039.08z"/>
	</g>
	<g id="header">
		<rect x="-1953.97" y="-1055.244" fill="none" width="1362.839" height="324.277"/>
		<path fill="#303030" d="M-1774.211-1052.164l1.681,1.96c3.92,3.64,4.76,9.8-1.96,16.52c-12.88,13.16-14.28,52.08-17.08,89.319
			c47.6-47.599,115.359-99.119,124.6-106.119c5.319-3.92,10.92,0.84,8.399,6.16c-0.279,1.96-1.68,3.64-3.64,5.6
			c-22.96,20.72-50.68,145.319-50.68,187.599c0,32.76,7,47.881,21.84,47.881c8.96,0,7,11.199,0,11.199
			c-75.88,0-40.04-149.24-2.8-221.479c-29.12,24.36-70.84,60.479-99.12,88.76c-3.359,33.318-9.52,61.318-29.119,61.318
			c-9.521,0-16.24-7-16.24-15.398c0-11.201,11.2-26.881,29.12-46.76c1.399-35,1.119-79.8,9.52-106.4
			c-48.439,38.08-97.439,172.479-124.88,172.479c-8.68,0-8.68-11.199-0.56-11.199c19.32,0,61.6-122.64,111.72-166.879
			c-52.36,10.92-118.439,40.88-118.439,70.84c0,19.879-22.4,17.359-22.4,4.199c0-49.279,113.399-87.919,169.399-90.439
			c0.28,0,0.561-0.28,1.12-0.28c1.4-0.28,2.8-0.28,3.92-0.28h0.84C-1777.011-1053.564-1775.33-1053.004-1774.211-1052.164z
			 M-1810.051-906.844c-5.039,5.879-9.239,10.92-11.479,14.84c-3.92,6.719-8.68,17.08,0.56,17.08
			C-1814.25-874.924-1811.45-887.805-1810.051-906.844z"/>
		<path fill="#303030" d="M-1617.971-977.124c13.439,0,17.92,8.399,17.92,18.2c0,23.799-30.24,61.879-56.56,61.879
			c-2.24,0-4.2,0-6.16-0.559c-0.56,3.078-0.84,5.6-0.84,8.119c0,12.879,7.56,18.48,20.439,18.48c21.28,0,44.24-27.441,54.32-43.961
			c1.399-2.24,3.359-3.08,5.04-3.08c2.8,0,5.6,1.961,5.6,5.32c0,1.121-0.28,2.24-1.12,3.641c-8.399,14.559-31.64,49.84-65.52,49.84
			c-22.68,0-38.359-14.281-38.359-38.08C-1683.21-932.324-1650.73-977.124-1617.971-977.124z M-1660.251-908.244h2.521
			c22.399,0,46.479-35.279,46.479-50.68c0-4.201-0.56-7-5.319-7C-1632.251-965.924-1652.41-934.004-1660.251-908.244z"/>
		<path fill="#303030" d="M-1548.813-993.644c21,0,49.56,27.16,49.56,67.199c0,32.48-25.76,67.201-57.96,67.201
			c-35.84,0-35.56-28-30.52-34.439c3.64-4.48,14.28-5.041,10.359,3.92c-5.039,11.479,5.32,18.76,16.521,18.76
			c18.76,0,39.199-23.801,39.199-56.281c0-22.119-8.959-36.398-17.359-45.359l-40.32,63.561c-4.199,6.719-13.159,0.279-9.52-5.881
			c2.8-4.76,34.72-53.479,42-64.679c-2.24-1.68-4.2-2.52-5.32-3.36C-1558.894-986.644-1557.214-993.644-1548.813-993.644z"/>
		<path fill="#303030" d="M-1493.935-886.965c0-23.24,16.8-77.559,19.6-84c1.681-4.199,5.88-6.159,9.8-6.159
			c5.881,0,11.761,3.92,11.761,9.8c0,1.119,0,2.52-0.561,3.641c-5.88,15.959-26.6,58.238-26.6,81.76
			c0,7.279,1.68,11.479,4.479,11.479c13.16,0,37.521-38.08,41.16-44.52c1.4-2.24,3.36-3.08,5.04-3.08c2.8,0,5.6,1.961,5.6,5.32
			c0,1.121-0.279,2.24-1.12,3.641c-5.039,8.959-31.079,49.84-50.68,49.84C-1486.935-859.244-1493.935-869.605-1493.935-886.965z
			 M-1451.935-1022.204c6.72,0,12.319,5.6,12.319,12.32c0,6.72-5.6,12.04-12.319,12.04s-12.04-5.32-12.04-12.04
			C-1463.975-1016.604-1458.654-1022.204-1451.935-1022.204z"/>
		<path fill="#303030" d="M-1369.338-886.404c0-3.08,0.279-6.721,0.56-10.92c-12.88,21-28.84,38.08-45.08,38.08
			c-15.399,0-23.8-13.441-23.8-34.16c0-38.92,34.16-83.72,74.2-83.72c23.239,0,27.439,15.12,27.439,19.601
			c0,3.08-2.239,4.76-4.76,5.039c2.8,1.68,4.76,4.48,4.76,7.84c0,1.121,0,2.52-0.56,3.641c-5.88,15.959-18.48,43.4-18.48,59.639
			c0,7.281,1.681,10.92,4.48,10.92c13.16,0,37.52-38.08,41.16-44.52c1.399-2.24,3.359-3.08,5.039-3.08
			c2.801,0,5.601,1.961,5.601,5.32c0,1.121-0.28,2.24-1.12,3.641c-5.04,8.959-31.08,49.84-50.68,49.84
			C-1362.059-859.244-1369.338-869.045-1369.338-886.404z M-1347.778-954.443c0.561,0,1.4,0,2.24,0.279
			c-3.36-3.641-4.2-11.76-13.72-11.76c-30.521,0-60.76,55.719-60.76,84.84c0,8.959,4.76,10.639,7.84,10.639
			c17.08,0,44.52-46.479,52.079-69.719l1.4-5.32C-1357.578-951.645-1352.538-954.443-1347.778-954.443z M-1383.338-1014.364
			c6.72,0,12.319,5.6,12.319,12.32c0,6.72-5.6,12.04-12.319,12.04s-12.04-5.32-12.04-12.04
			C-1395.378-1008.764-1390.058-1014.364-1383.338-1014.364z M-1344.139-1014.364c6.721,0,12.32,5.6,12.32,12.32
			c0,6.72-5.6,12.04-12.32,12.04c-6.72,0-12.039-5.32-12.039-12.04C-1356.178-1008.764-1350.858-1014.364-1344.139-1014.364z"/>
		<path fill="#303030" d="M-1313.338-886.965c0-23.24,16.8-77.559,19.6-84c1.681-4.199,5.88-6.159,9.8-6.159
			c5.88,0,11.761,3.92,11.761,9.8c0,1.119,0,2.52-0.561,3.641c-5.88,15.959-26.6,58.238-26.6,81.76
			c0,7.279,1.68,11.479,4.479,11.479c13.16,0,37.521-38.08,41.16-44.52c1.4-2.24,3.36-3.08,5.04-3.08c2.8,0,5.6,1.961,5.6,5.32
			c0,1.121-0.279,2.24-1.12,3.641c-5.039,8.959-31.079,49.84-50.68,49.84C-1306.338-859.244-1313.338-869.605-1313.338-886.965z
			 M-1271.338-1022.204c6.72,0,12.319,5.6,12.319,12.32c0,6.72-5.6,12.04-12.319,12.04c-6.721,0-12.04-5.32-12.04-12.04
			C-1283.378-1016.604-1278.059-1022.204-1271.338-1022.204z"/>
		<path fill="#303030" d="M-1253.981-871.004l-3.359,8.119c-0.841,2.52-3.08,3.641-5.32,3.641c-3.36,0-5.6-2.801-5.6-5.6
			c0-0.561,0-1.121,0.279-1.682l30.24-102.758c1.4-4.761,6.16-7.841,10.92-7.841c6.72,0,10.92,5.601,10.92,11.2
			c0,1.119-0.28,4.199-0.84,4.199l-12.6,30.24c17.64-23.52,39.199-45.64,58.52-45.64c11.479,0,15.68,6.44,15.68,15.96
			c0,25.199-29.68,73.359-29.68,87.08c0,2.24,0.84,3.639,3.08,3.639c13.159,0,37.52-38.08,41.159-44.52
			c1.4-2.24,3.36-3.08,5.04-3.08c2.8,0,5.601,1.961,5.601,5.32c0,1.121-0.28,2.24-1.12,3.641c-5.04,8.959-31.08,49.84-50.68,49.84
			c-13.44,0-19.601-8.4-19.601-19.32c0-32.76,32.2-77,32.2-85.68c0-1.119-0.84-1.68-1.68-1.68
			C-1198.262-965.924-1244.741-886.965-1253.981-871.004z"/>
		<path fill="#303030" d="M-1077.864-977.124c13.44,0,17.92,8.399,17.92,18.2c0,23.799-30.24,61.879-56.56,61.879
			c-2.24,0-4.2,0-6.16-0.559c-0.56,3.078-0.84,5.6-0.84,8.119c0,12.879,7.56,18.48,20.439,18.48c21.28,0,44.24-27.441,54.32-43.961
			c1.399-2.24,3.359-3.08,5.04-3.08c2.8,0,5.6,1.961,5.6,5.32c0,1.121-0.28,2.24-1.12,3.641c-8.399,14.559-31.64,49.84-65.52,49.84
			c-22.68,0-38.359-14.281-38.359-38.08C-1143.104-932.324-1110.624-977.124-1077.864-977.124z M-1120.145-908.244h2.521
			c22.399,0,46.479-35.279,46.479-50.68c0-4.201-0.56-7-5.319-7C-1092.145-965.924-1112.304-934.004-1120.145-908.244z"/>
		<path fill="#303030" d="M-1049.027-871.004l-3.359,8.119c-0.84,2.52-3.08,3.641-5.32,3.641c-3.36,0-5.6-2.801-5.6-5.6
			c0-0.561,0-1.121,0.279-1.682l30.24-102.758c1.4-4.761,6.16-7.841,10.92-7.841c6.72,0,10.92,5.601,10.92,11.2
			c0,1.119-0.28,4.199-0.84,4.199l-12.6,30.24c17.64-23.52,39.199-45.64,58.52-45.64c11.479,0,15.68,6.44,15.68,15.96
			c0,25.199-29.68,73.359-29.68,87.08c0,2.24,0.84,3.639,3.08,3.639c13.16,0,37.52-38.08,41.159-44.52c1.4-2.24,3.36-3.08,5.04-3.08
			c2.801,0,5.601,1.961,5.601,5.32c0,1.121-0.28,2.24-1.12,3.641c-5.04,8.959-31.08,49.84-50.68,49.84
			c-13.44,0-19.601-8.4-19.601-19.32c0-32.76,32.2-77,32.2-85.68c0-1.119-0.84-1.68-1.68-1.68
			C-993.308-965.924-1039.787-886.965-1049.027-871.004z"/>
	</g>
	<g>
		<path fill="#232021" d="M-1591.552-825.021c0.479,1.388,0.506,3.094,0.08,5.12c-0.214,0.8-0.48,1.641-0.8,2.521
			c-0.32,0.88-0.748,1.773-1.28,2.68c-0.854,1.44-1.788,2.787-2.8,4.04c-1.014,1.254-2.134,2.36-3.36,3.32
			c-1.388,1.067-2.854,1.974-4.4,2.72c-1.547,0.747-3.147,1.308-4.8,1.68c-0.428,0.107-0.827,0.188-1.2,0.24
			c-0.373,0.054-0.773,0.107-1.199,0.16c-0.374,2.399-0.841,4.773-1.4,7.12c-0.56,2.348-1.24,4.72-2.04,7.12
			c3.84-0.106,7.586-0.906,11.24-2.4c3.652-1.492,7.092-3.427,10.319-5.8c3.227-2.373,6.187-5.053,8.881-8.04
			c2.692-2.986,4.985-6.04,6.88-9.16c1.893-3.12,3.346-6.16,4.359-9.12c1.013-2.96,1.467-5.586,1.36-7.88
			c0-0.32,0.386-0.56,1.16-0.72c0.772-0.16,1.706-0.2,2.8-0.12c1.093,0.08,2.24,0.308,3.44,0.68c1.199,0.374,2.199,0.947,3,1.72
			c0.8,0.774,1.306,1.761,1.52,2.96c0.213,1.2-0.107,2.654-0.96,4.36c-2.08,4.107-4.773,8.228-8.08,12.36
			c-3.308,4.134-6.947,7.867-10.92,11.2c-3.974,3.333-8.094,6.054-12.36,8.159c-4.268,2.107-8.399,3.16-12.399,3.16
			c3.52,0.268,6.546,1.014,9.08,2.24c2.532,1.228,4.732,2.733,6.6,4.52c1.866,1.788,3.467,3.774,4.8,5.96
			c1.333,2.188,2.533,4.4,3.601,6.641c1.066,2.24,2.066,4.426,3,6.56c0.933,2.133,1.933,4.026,3,5.681
			c1.066,1.652,2.266,2.986,3.6,4c1.333,1.012,2.933,1.546,4.8,1.6c0.32,0,0.493,0.332,0.521,1c0.026,0.666-0.08,1.492-0.32,2.48
			c-0.24,0.985-0.6,2.052-1.08,3.199c-0.479,1.146-1.08,2.213-1.8,3.2c-0.72,0.986-1.548,1.8-2.48,2.44
			c-0.934,0.64-1.96,0.933-3.079,0.88c-1.868-0.054-3.494-0.774-4.881-2.16c-1.387-1.388-2.627-3.2-3.72-5.44
			c-1.094-2.239-2.12-4.787-3.08-7.64c-0.96-2.854-1.974-5.773-3.04-8.76c-1.067-2.987-2.24-5.894-3.52-8.72
			c-1.28-2.827-2.788-5.347-4.521-7.561c-1.733-2.213-3.773-4-6.12-5.36c-2.347-1.359-5.094-2.04-8.239-2.04
			c-0.588,0-1.388,0.068-2.4,0.2c-1.014,0.134-1.92,0.28-2.72,0.44c-2.24,5.28-5.107,10.107-8.601,14.479
			c-3.493,4.373-7.747,7.841-12.76,10.4c-3.36,1.706-6.773,2.692-10.24,2.96c-1.707,0-3.268-0.16-4.68-0.48
			c-1.414-0.319-2.707-0.934-3.88-1.84c-1.067-0.907-1.88-2.014-2.44-3.319c-0.56-1.308-0.813-2.734-0.76-4.28
			c-0.054-1.6,0.267-3.24,0.96-4.92c0.692-1.68,1.601-3.293,2.72-4.84c0.641-0.853,1.547-1.826,2.721-2.92
			c1.172-1.093,2.52-2.04,4.04-2.841c1.52-0.8,3.199-1.332,5.04-1.6c1.84-0.267,3.772-0.053,5.8,0.64
			c0.532,0.214,0.746,0.721,0.64,1.521c-0.107,0.8-0.399,1.573-0.88,2.32c-0.479,0.747-1.054,1.333-1.72,1.76
			c-0.668,0.428-1.268,0.348-1.8-0.24c-0.748-0.8-1.654-1.227-2.721-1.28c-1.067-0.052-2.147,0.12-3.239,0.521
			c-1.094,0.399-2.134,0.947-3.12,1.64c-0.988,0.694-1.774,1.388-2.36,2.08c-1.974,2.4-2.96,4.906-2.96,7.521
			c-0.054,1.172,0.106,2.292,0.48,3.359c0.372,1.066,1.039,1.813,2,2.24c2.186,0.96,4.439,0.786,6.76-0.521
			c2.319-1.307,4.572-3.293,6.76-5.96c2.187-2.667,4.253-5.8,6.2-9.399c1.946-3.601,3.692-7.267,5.24-11
			c0.692-1.76,1.346-3.521,1.96-5.28c0.612-1.76,1.146-3.452,1.6-5.08c0.452-1.626,0.84-3.12,1.16-4.479
			c0.32-1.36,0.532-2.521,0.64-3.48c-0.533-0.212-1.334-0.88-2.399-2c-1.068-1.12-2.28-2.359-3.641-3.72
			c-1.359-1.36-2.827-2.706-4.399-4.04c-1.574-1.333-3.16-2.32-4.761-2.96c-2.88-1.173-5.387-1.601-7.52-1.28
			c-2.134,0.32-3.907,1.094-5.32,2.32c-1.413,1.228-2.479,2.8-3.2,4.72c-0.72,1.92-1.079,3.867-1.079,5.84
			c0,0.428-0.44,0.774-1.32,1.04c-0.88,0.268-1.867,0.4-2.96,0.4c-1.094,0-2.08-0.16-2.96-0.48c-0.88-0.319-1.32-0.906-1.32-1.76
			c0-1.76,0.412-3.439,1.24-5.04c0.826-1.6,1.933-3.066,3.32-4.399c1.386-1.333,3-2.467,4.84-3.4c1.84-0.933,3.772-1.612,5.8-2.04
			c2.026-0.427,4.093-0.56,6.2-0.4c2.105,0.16,4.146,0.668,6.12,1.521c1.279,0.533,2.586,1.308,3.92,2.32
			c1.332,1.014,2.64,2.107,3.92,3.279c1.279,1.174,2.479,2.334,3.6,3.48c1.12,1.147,2.106,2.094,2.96,2.84
			c0.427-1.706,0.906-3.293,1.44-4.76c0.532-1.467,1.2-2.813,2-4.04c2.08-3.467,4.279-6.013,6.6-7.641
			c2.32-1.626,4.36-2.732,6.12-3.319c1.066-0.373,2.187-0.613,3.36-0.721c1.172-0.105,2.292-0.105,3.359,0
			c1.066,0.107,2.04,0.308,2.92,0.601c0.88,0.294,1.692,0.653,2.44,1.08C-1593.18-827.768-1592.14-826.621-1591.552-825.021z
			 M-1596.432-815.741c0.479-0.746,0.853-1.466,1.12-2.16c0.266-0.692,0.479-1.359,0.64-2c0.32-1.386,0.32-2.56,0-3.52
			s-0.96-1.652-1.92-2.08c-0.48-0.16-0.96-0.24-1.44-0.24c-0.64,0-1.359,0.134-2.16,0.4c-0.427,0.159-0.854,0.373-1.279,0.64
			c-0.428,0.268-0.854,0.588-1.28,0.96c-0.96,0.693-1.707,1.494-2.24,2.4c-0.693,0.907-1.254,1.867-1.68,2.88
			c-0.428,1.014-0.827,2-1.2,2.96c-0.533,1.6-1.027,3.214-1.479,4.84c-0.454,1.627-0.841,3.268-1.16,4.92
			c0.212-0.053,0.452-0.093,0.72-0.12c0.267-0.026,0.532-0.093,0.8-0.2c2.826-0.586,5.36-1.786,7.601-3.6
			c0.906-0.8,1.8-1.706,2.68-2.72C-1597.832-813.394-1597.072-814.514-1596.432-815.741z"/>
		<path fill="#232021" d="M-1541.071-806.142c0,0.854-0.16,1.468-0.48,1.841c-0.428,0.8-1.094,1.199-2,1.199
			c-0.64,0-1.214-0.212-1.72-0.64c-0.508-0.426-0.76-0.986-0.76-1.68c0-0.427,0.119-0.826,0.359-1.2
			c0.24-0.373,0.547-0.692,0.92-0.96c-0.428-0.746-0.92-1.12-1.479-1.12c-0.561,0-1.16,0.228-1.8,0.68
			c-0.641,0.454-1.294,1.067-1.961,1.84c-0.667,0.774-1.319,1.561-1.96,2.36c-1.119,1.44-2.199,3.107-3.239,5
			c-1.04,1.894-1.96,3.84-2.761,5.84c-0.8,2-1.439,3.974-1.92,5.92c-0.479,1.948-0.733,3.721-0.76,5.32
			c-0.027,1.6,0.2,2.92,0.68,3.96c0.48,1.04,1.28,1.668,2.4,1.88c0.8,0.16,1.692-0.2,2.68-1.08c0.986-0.88,1.973-2.013,2.96-3.399
			c0.986-1.387,1.946-2.893,2.881-4.521c0.932-1.626,1.746-3.133,2.439-4.52c-1.12-0.48-1.894-1.267-2.32-2.36
			c-0.427-1.093-0.56-2.2-0.399-3.32s0.586-2.105,1.28-2.96c0.692-0.853,1.572-1.279,2.64-1.279c0.372,0,0.853,0.027,1.439,0.08
			c0.587,0.054,1.093,0.333,1.521,0.84c0.426,0.507,0.666,1.319,0.72,2.439c0.053,1.12-0.24,2.748-0.88,4.88
			c2.133-0.052,3.84-0.346,5.12-0.88c1.28-0.532,2.28-1.12,3-1.76s1.2-1.267,1.44-1.88c0.239-0.612,0.412-1,0.52-1.16
			c0.16-0.372,0.412-0.6,0.76-0.68c0.347-0.08,0.681-0.04,1,0.12c0.32,0.159,0.561,0.413,0.721,0.76c0.159,0.348,0.159,0.733,0,1.16
			c-0.428,1.014-1.094,1.947-2,2.8c-0.908,0.854-1.961,1.573-3.16,2.16c-1.2,0.587-2.534,1.04-4,1.359
			c-1.468,0.32-2.948,0.454-4.44,0.4c-0.747,1.653-1.693,3.494-2.84,5.52c-1.147,2.028-2.468,3.908-3.96,5.641
			c-1.494,1.733-3.134,3.16-4.92,4.28c-1.788,1.119-3.694,1.6-5.72,1.439c-2.668-0.267-4.761-1.386-6.28-3.36
			c-1.521-1.972-2.333-4.372-2.44-7.199c-0.052-2.133,0.16-4.36,0.641-6.681c0.479-2.319,1.199-4.6,2.159-6.84
			c0.961-2.24,2.133-4.359,3.521-6.359c1.386-2,2.946-3.747,4.68-5.24c1.732-1.493,3.627-2.641,5.681-3.44
			c2.052-0.8,4.199-1.146,6.439-1.04c1.013,0.054,1.853,0.28,2.521,0.681c0.666,0.399,1.212,0.88,1.64,1.439
			c0.426,0.561,0.746,1.174,0.96,1.84C-1541.339-807.354-1541.18-806.728-1541.071-806.142z"/>
		<path fill="#232021" d="M-1512.272-805.421c0-0.427,0.12-0.826,0.359-1.2c0.24-0.373,0.547-0.692,0.92-0.96
			c-0.267-0.641-0.693-0.96-1.279-0.96c-0.748-0.053-1.574,0.28-2.48,1c-0.907,0.72-1.88,1.76-2.92,3.12
			c-1.04,1.359-2.12,3.04-3.24,5.04c-1.119,2-2.239,4.228-3.359,6.68c-0.694,1.548-1.268,3.214-1.721,5
			c-0.453,1.787-0.707,3.494-0.76,5.12c-0.054,1.627,0.106,3.054,0.48,4.28c0.372,1.228,1.04,2.027,2,2.399
			c1.12,0.48,2.292,0.12,3.52-1.08c1.227-1.2,2.48-2.813,3.76-4.84c1.28-2.026,2.521-4.267,3.721-6.72s2.306-4.692,3.319-6.72
			c1.013-2.613,2.133-5.373,3.36-8.28c1.227-2.906,2.44-5.772,3.64-8.601c1.2-2.826,2.347-5.546,3.44-8.159
			c1.093-2.613,2.026-4.946,2.8-7c0.772-2.053,1.333-3.733,1.681-5.04c0.346-1.307,0.386-2.093,0.119-2.36
			c-0.373-0.32-0.199-0.692,0.521-1.12c0.72-0.426,1.612-0.666,2.68-0.72c1.066-0.053,2.173,0.188,3.32,0.72
			c1.146,0.534,1.96,1.6,2.439,3.2c0.373,1.174,0.267,2.894-0.319,5.16c-0.588,2.268-1.454,4.84-2.601,7.72
			c-1.147,2.88-2.493,5.987-4.04,9.32s-3.107,6.627-4.68,9.88c-1.573,3.254-3.067,6.388-4.479,9.399
			c-1.414,3.014-2.561,5.654-3.44,7.92c-0.88,2.268-1.388,4.068-1.52,5.4c-0.134,1.334,0.252,1.947,1.159,1.84
			c0.533-0.053,1.213-0.479,2.04-1.279c0.826-0.801,1.746-1.827,2.761-3.08c1.012-1.253,2.052-2.653,3.119-4.2
			c1.066-1.547,2.08-3.093,3.04-4.641c0.96-1.546,1.813-3.012,2.561-4.399c0.746-1.387,1.28-2.532,1.6-3.44
			c0.16-0.426,0.427-0.692,0.8-0.8c0.373-0.106,0.721-0.106,1.04,0c0.32,0.107,0.573,0.32,0.761,0.64
			c0.186,0.32,0.172,0.668-0.04,1.04c-0.428,0.908-1.04,2.147-1.84,3.721c-0.801,1.573-1.748,3.254-2.841,5.04
			c-1.094,1.787-2.279,3.587-3.56,5.399c-1.28,1.814-2.6,3.468-3.96,4.96c-1.36,1.494-2.733,2.721-4.12,3.681
			c-1.388,0.96-2.72,1.439-4,1.439c-2.027,0.107-3.534-0.706-4.52-2.439c-0.988-1.732-1.374-3.933-1.16-6.601
			c-1.014,1.654-2.08,3.134-3.2,4.44c-1.12,1.308-2.32,2.359-3.601,3.16c-1.279,0.8-2.667,1.279-4.159,1.439
			c-1.494,0.16-3.094-0.133-4.801-0.88c-2.134-0.853-3.666-2.106-4.6-3.76c-0.933-1.652-1.479-3.453-1.64-5.4
			c-0.16-1.946,0-3.973,0.479-6.08c0.48-2.106,1.067-4.04,1.76-5.8c1.28-3.252,2.707-6.04,4.28-8.36c1.572-2.319,3.24-4.212,5-5.68
			c1.76-1.466,3.572-2.52,5.44-3.16c1.866-0.64,3.76-0.933,5.68-0.88c0.64,0.054,1.32,0.174,2.04,0.36
			c0.72,0.188,1.387,0.493,2,0.92c0.612,0.428,1.133,1,1.56,1.72s0.641,1.614,0.641,2.68c0,1.068-0.24,1.841-0.72,2.32
			c-0.428,0.534-1.015,0.8-1.761,0.8c-0.64,0-1.214-0.212-1.72-0.64C-1512.021-804.167-1512.272-804.728-1512.272-805.421z"/>
		<path fill="#232021" d="M-1471.713-792.421c-0.8,1.573-1.748,3.254-2.84,5.04c-1.094,1.787-2.28,3.587-3.561,5.399
			c-1.279,1.814-2.6,3.468-3.96,4.96c-1.359,1.494-2.733,2.721-4.12,3.681s-2.72,1.439-4,1.439c-1.065,0.054-1.986-0.16-2.76-0.64
			c-0.772-0.48-1.399-1.16-1.88-2.04s-0.8-1.946-0.96-3.2c-0.16-1.253-0.16-2.6,0-4.04c0.214-1.76,0.628-3.626,1.24-5.6
			c0.613-1.973,1.319-3.946,2.12-5.92c0.8-1.973,1.612-3.881,2.439-5.721c0.826-1.84,1.547-3.506,2.16-5
			c0.612-1.492,1.04-2.746,1.28-3.76c0.239-1.013,0.172-1.706-0.2-2.08c-0.374-0.32-0.2-0.692,0.52-1.12
			c0.721-0.426,1.613-0.666,2.681-0.72c1.066-0.053,2.172,0.188,3.319,0.72c1.146,0.534,1.96,1.601,2.44,3.2
			c0.479,1.548,0.4,3.428-0.24,5.64c-0.64,2.214-1.533,4.521-2.68,6.921c-1.147,2.399-2.374,4.773-3.68,7.119
			c-1.308,2.348-2.4,4.44-3.28,6.28s-1.388,3.308-1.521,4.4c-0.134,1.094,0.413,1.587,1.641,1.479
			c0.532-0.053,1.212-0.479,2.04-1.279c0.826-0.801,1.746-1.827,2.76-3.08c1.013-1.253,2.053-2.653,3.12-4.2
			c1.066-1.547,2.08-3.093,3.04-4.641c0.96-1.546,1.813-3.012,2.56-4.399c0.746-1.387,1.28-2.532,1.601-3.44
			c0.159-0.426,0.426-0.692,0.8-0.8c0.372-0.106,0.72-0.106,1.04,0c0.319,0.107,0.572,0.32,0.76,0.64
			c0.187,0.32,0.173,0.668-0.04,1.04C-1470.301-795.233-1470.913-793.994-1471.713-792.421z M-1475.193-817.341
			c0.293-0.641,0.613-1.28,0.96-1.92c0.347-0.641,0.667-1.253,0.96-1.841c0.293-0.586,0.44-1.04,0.44-1.359
			c0-1.333-0.4-2.427-1.2-3.28c-0.8-0.853-1.693-1.492-2.68-1.92c-0.987-0.427-1.88-0.64-2.68-0.64c-0.801,0-1.2,0.188-1.2,0.56
			c0,0.32-0.16,0.773-0.48,1.36c-0.319,0.587-0.68,1.228-1.08,1.92c-0.399,0.693-0.76,1.348-1.08,1.96
			c-0.319,0.613-0.479,1.107-0.479,1.479c0,1.334,0.426,2.44,1.28,3.32c0.853,0.88,1.772,1.52,2.76,1.92
			c0.986,0.4,1.906,0.6,2.76,0.6c0.853,0,1.28-0.212,1.28-0.64C-1475.633-816.193-1475.486-816.701-1475.193-817.341z"/>
		<path fill="#232021" d="M-1441.634-801.821c-0.107,1.813-0.507,3.72-1.2,5.72s-1.479,3.96-2.359,5.88
			c-0.88,1.921-1.76,3.748-2.641,5.48c-0.88,1.733-1.56,3.24-2.04,4.52c-0.479,1.28-0.68,2.308-0.6,3.08
			c0.08,0.774,0.652,1.16,1.72,1.16c0.48,0,1.146-0.386,2-1.16c0.853-0.772,1.786-1.786,2.801-3.04
			c1.012-1.252,2.065-2.666,3.159-4.239c1.093-1.573,2.12-3.133,3.08-4.681c0.96-1.546,1.813-3.026,2.561-4.439
			c0.746-1.413,1.279-2.572,1.6-3.48c0.16-0.426,0.427-0.692,0.8-0.8c0.373-0.106,0.721-0.106,1.04,0
			c0.32,0.107,0.573,0.32,0.761,0.64c0.186,0.32,0.172,0.668-0.04,1.04c-0.428,0.908-1.04,2.147-1.841,3.721
			c-0.8,1.573-1.747,3.254-2.84,5.04c-1.094,1.787-2.279,3.587-3.56,5.399c-1.28,1.814-2.601,3.468-3.96,4.96
			c-1.36,1.494-2.734,2.721-4.12,3.681c-1.388,0.96-2.72,1.439-4,1.439c-1.067,0.054-1.974-0.2-2.72-0.76
			c-0.748-0.561-1.36-1.32-1.841-2.28c-0.479-0.96-0.813-2.04-1-3.24c-0.188-1.199-0.199-2.412-0.04-3.64
			c0.267-2.187,0.773-4.346,1.521-6.479c0.746-2.133,1.56-4.173,2.44-6.12c0.88-1.946,1.746-3.732,2.6-5.36
			c0.853-1.626,1.492-3.04,1.92-4.24c0.426-1.2,0.572-2.12,0.44-2.76c-0.134-0.64-0.761-0.933-1.881-0.88
			c-0.587,0.054-1.413,0.52-2.479,1.4c-1.067,0.88-2.228,2-3.48,3.359c-1.253,1.36-2.52,2.854-3.8,4.48s-2.428,3.188-3.439,4.68
			c-1.014,2.08-2.067,4.147-3.16,6.2c-1.094,2.054-2.067,3.987-2.92,5.8c-0.854,1.813-1.48,3.414-1.88,4.8
			c-0.4,1.388-0.414,2.454-0.04,3.2c0.212,0.428,0.04,0.867-0.521,1.32c-0.56,0.453-1.28,0.692-2.16,0.72
			c-0.88,0.026-1.786-0.253-2.72-0.84c-0.933-0.587-1.64-1.681-2.12-3.28c-0.426-1.28-0.399-2.96,0.08-5.04
			c0.48-2.08,1.174-4.306,2.08-6.68c0.907-2.373,1.92-4.8,3.04-7.28c1.12-2.479,2.133-4.76,3.04-6.84c0.906-2.08,1.572-3.866,2-5.36
			c0.426-1.492,0.426-2.452,0-2.88c-0.374-0.32-0.2-0.692,0.52-1.12c0.721-0.426,1.627-0.666,2.721-0.72
			c1.092-0.053,2.199,0.188,3.319,0.72c1.12,0.534,1.92,1.601,2.4,3.2c0.213,0.693,0.292,1.454,0.24,2.28
			c-0.054,0.827-0.188,1.693-0.4,2.6c1.013-1.172,2.04-2.292,3.08-3.359c1.04-1.066,2.093-2,3.16-2.801
			c1.066-0.8,2.106-1.439,3.12-1.92c1.013-0.479,2-0.72,2.96-0.72c2.08-0.053,3.626,0.854,4.64,2.72
			C-1441.581-807.153-1441.261-804.754-1441.634-801.821z"/>
		<path fill="#232021" d="M-1418.436-775.821c-0.319-0.96-0.226-2.506,0.28-4.64c0.508-2.133,1.28-4.627,2.32-7.48
			c1.04-2.853,2.253-5.933,3.64-9.24c1.387-3.306,2.813-6.64,4.28-10c1.466-3.359,2.88-6.626,4.239-9.8
			c1.36-3.172,2.547-6.013,3.561-8.52c1.013-2.507,1.76-4.587,2.24-6.24c0.479-1.652,0.56-2.64,0.239-2.96
			c-0.373-0.32-0.199-0.692,0.521-1.12c0.72-0.426,1.626-0.666,2.72-0.72c1.093-0.053,2.2,0.188,3.32,0.72
			c1.12,0.534,1.92,1.6,2.399,3.2c0.32,1.014,0.24,2.479-0.239,4.399c-0.48,1.921-1.2,4.148-2.16,6.681
			c-0.96,2.533-2.107,5.294-3.44,8.28c-1.333,2.987-2.72,6-4.16,9.039c1.867-2.079,3.773-3.84,5.721-5.279
			c1.946-1.44,3.772-2.187,5.479-2.24c2.08-0.053,3.627,0.854,4.641,2.72c1.012,1.868,1.332,4.268,0.96,7.2
			c-0.107,1.813-0.508,3.72-1.2,5.72c-0.694,2-1.48,3.96-2.36,5.88c-0.88,1.921-1.76,3.748-2.64,5.48
			c-0.88,1.733-1.561,3.24-2.04,4.52c-0.48,1.28-0.68,2.308-0.6,3.08c0.079,0.774,0.652,1.16,1.72,1.16c0.479,0,1.146-0.386,2-1.16
			c0.853-0.772,1.786-1.786,2.8-3.04c1.013-1.252,2.066-2.666,3.16-4.239c1.093-1.573,2.12-3.133,3.08-4.681
			c0.96-1.546,1.813-3.026,2.56-4.439c0.746-1.413,1.28-2.572,1.601-3.48c0.159-0.426,0.426-0.692,0.8-0.8
			c0.372-0.106,0.72-0.106,1.04,0c0.319,0.107,0.572,0.32,0.76,0.64c0.187,0.32,0.173,0.668-0.04,1.04
			c-0.428,0.908-1.04,2.147-1.84,3.721s-1.748,3.254-2.84,5.04c-1.094,1.787-2.28,3.587-3.561,5.399
			c-1.279,1.814-2.6,3.468-3.96,4.96c-1.359,1.494-2.733,2.721-4.12,3.681s-2.72,1.439-4,1.439c-1.067,0.054-1.974-0.2-2.72-0.76
			c-0.747-0.561-1.36-1.32-1.84-2.28c-0.48-0.96-0.813-2.04-1-3.24c-0.188-1.199-0.2-2.412-0.04-3.64
			c0.267-2.187,0.772-4.346,1.52-6.479c0.747-2.133,1.561-4.173,2.44-6.12c0.88-1.946,1.746-3.732,2.6-5.36
			c0.853-1.626,1.493-3.04,1.92-4.24s0.573-2.12,0.44-2.76c-0.134-0.64-0.76-0.933-1.88-0.88c-0.693,0.054-1.693,0.64-3,1.76
			c-1.308,1.12-2.68,2.521-4.12,4.2s-2.854,3.468-4.24,5.36c-1.388,1.894-2.507,3.613-3.359,5.159l-1.04,2.16v0.08l-0.16,0.32
			c-1.708,3.787-3.054,7.014-4.04,9.68c-0.987,2.668-1.268,4.4-0.84,5.2c0.212,0.428,0.04,0.867-0.521,1.32
			c-0.56,0.453-1.279,0.692-2.16,0.72c-0.88,0.026-1.786-0.253-2.72-0.84C-1417.248-773.128-1417.955-774.222-1418.436-775.821z"/>
		<path fill="#232021" d="M-1334.436-796.142c-0.428,0.908-1.04,2.147-1.841,3.721c-0.8,1.573-1.747,3.254-2.84,5.04
			c-1.094,1.787-2.279,3.587-3.56,5.399c-1.28,1.814-2.601,3.468-3.96,4.96c-1.36,1.494-2.734,2.721-4.12,3.681
			c-1.388,0.96-2.72,1.439-4,1.439c-1.067,0.054-1.987-0.16-2.76-0.64c-0.774-0.48-1.4-1.16-1.88-2.04
			c-0.48-0.88-0.801-1.946-0.96-3.2c-0.16-1.253-0.16-2.6,0-4.04c0-0.267,0.025-0.52,0.079-0.76c0.053-0.24,0.106-0.492,0.16-0.76
			c-1.014,1.493-2.067,2.92-3.16,4.279c-1.094,1.36-2.199,2.574-3.319,3.641c-1.12,1.067-2.24,1.92-3.36,2.56s-2.188,0.96-3.2,0.96
			c-1.065,0.054-1.986-0.16-2.76-0.64c-0.772-0.48-1.399-1.16-1.88-2.04s-0.8-1.946-0.96-3.2c-0.16-1.253-0.16-2.6,0-4.04
			c0.214-1.76,0.628-3.626,1.24-5.6c0.613-1.973,1.319-3.946,2.12-5.92c0.8-1.973,1.612-3.881,2.439-5.721
			c0.826-1.84,1.547-3.506,2.16-5c0.612-1.492,1.04-2.746,1.28-3.76c0.239-1.013,0.172-1.706-0.2-2.08
			c-0.374-0.32-0.2-0.692,0.52-1.12c0.721-0.426,1.613-0.666,2.681-0.72c1.066-0.053,2.172,0.188,3.319,0.72
			c1.146,0.534,1.96,1.601,2.44,3.2c0.479,1.548,0.4,3.428-0.24,5.64c-0.64,2.214-1.533,4.521-2.68,6.921
			c-1.147,2.399-2.374,4.773-3.68,7.119c-1.308,2.348-2.4,4.44-3.28,6.28s-1.388,3.308-1.521,4.4
			c-0.134,1.094,0.413,1.587,1.641,1.479c0.64-0.053,1.572-0.72,2.8-2c1.227-1.279,2.52-2.866,3.88-4.76c1.36-1.893,2.692-3.893,4-6
			c1.307-2.106,2.387-3.986,3.24-5.64c0.8-1.866,1.586-3.653,2.359-5.36c0.772-1.706,1.44-3.267,2-4.68
			c0.561-1.413,0.946-2.601,1.16-3.561c0.213-0.96,0.133-1.6-0.239-1.92c-0.374-0.32-0.2-0.692,0.52-1.12
			c0.72-0.426,1.612-0.666,2.68-0.72c1.066-0.053,2.173,0.188,3.32,0.72c1.146,0.534,1.96,1.601,2.44,3.2
			c0.479,1.548,0.399,3.428-0.24,5.64c-0.641,2.214-1.534,4.521-2.681,6.921c-1.147,2.399-2.373,4.773-3.68,7.119
			c-1.308,2.348-2.399,4.44-3.28,6.28c-0.88,1.84-1.387,3.308-1.52,4.4c-0.134,1.094,0.412,1.587,1.64,1.479
			c0.48-0.053,1.146-0.479,2-1.279c0.853-0.801,1.786-1.827,2.801-3.08c1.012-1.253,2.052-2.653,3.119-4.2
			c1.066-1.547,2.08-3.093,3.04-4.641c0.96-1.546,1.813-3.012,2.561-4.399c0.746-1.387,1.28-2.532,1.6-3.44
			c0.16-0.426,0.427-0.692,0.8-0.8c0.373-0.106,0.721-0.106,1.04,0c0.32,0.107,0.573,0.32,0.761,0.64
			C-1334.21-796.861-1334.224-796.514-1334.436-796.142z"/>
		<path fill="#232021" d="M-1306.276-801.821c-0.107,1.813-0.507,3.72-1.2,5.72s-1.479,3.96-2.359,5.88
			c-0.88,1.921-1.76,3.748-2.641,5.48c-0.88,1.733-1.56,3.24-2.04,4.52c-0.479,1.28-0.68,2.308-0.6,3.08
			c0.08,0.774,0.652,1.16,1.72,1.16c0.48,0,1.146-0.386,2-1.16c0.853-0.772,1.786-1.786,2.801-3.04
			c1.012-1.252,2.065-2.666,3.159-4.239c1.093-1.573,2.12-3.133,3.08-4.681c0.96-1.546,1.813-3.026,2.561-4.439
			c0.746-1.413,1.279-2.572,1.6-3.48c0.16-0.426,0.427-0.692,0.8-0.8c0.373-0.106,0.721-0.106,1.04,0
			c0.32,0.107,0.573,0.32,0.761,0.64c0.186,0.32,0.172,0.668-0.04,1.04c-0.428,0.908-1.04,2.147-1.841,3.721
			c-0.8,1.573-1.747,3.254-2.84,5.04c-1.094,1.787-2.279,3.587-3.56,5.399c-1.28,1.814-2.601,3.468-3.96,4.96
			c-1.36,1.494-2.734,2.721-4.12,3.681c-1.388,0.96-2.72,1.439-4,1.439c-1.067,0.054-1.974-0.2-2.72-0.76
			c-0.748-0.561-1.36-1.32-1.841-2.28c-0.479-0.96-0.813-2.04-1-3.24c-0.188-1.199-0.199-2.412-0.04-3.64
			c0.267-2.187,0.773-4.346,1.521-6.479c0.746-2.133,1.56-4.173,2.44-6.12c0.88-1.946,1.746-3.732,2.6-5.36
			c0.853-1.626,1.492-3.04,1.92-4.24c0.426-1.2,0.572-2.12,0.44-2.76c-0.134-0.64-0.761-0.933-1.881-0.88
			c-0.587,0.054-1.413,0.52-2.479,1.4c-1.067,0.88-2.228,2-3.48,3.359c-1.253,1.36-2.52,2.854-3.8,4.48s-2.428,3.188-3.439,4.68
			c-1.014,2.08-2.067,4.147-3.16,6.2c-1.094,2.054-2.067,3.987-2.92,5.8c-0.854,1.813-1.48,3.414-1.88,4.8
			c-0.4,1.388-0.414,2.454-0.04,3.2c0.212,0.428,0.04,0.867-0.521,1.32c-0.56,0.453-1.28,0.692-2.16,0.72
			c-0.88,0.026-1.786-0.253-2.72-0.84c-0.933-0.587-1.64-1.681-2.12-3.28c-0.426-1.28-0.399-2.96,0.08-5.04
			c0.48-2.08,1.174-4.306,2.08-6.68c0.907-2.373,1.92-4.8,3.04-7.28c1.12-2.479,2.133-4.76,3.04-6.84c0.906-2.08,1.572-3.866,2-5.36
			c0.426-1.492,0.426-2.452,0-2.88c-0.374-0.32-0.2-0.692,0.52-1.12c0.721-0.426,1.627-0.666,2.721-0.72
			c1.092-0.053,2.199,0.188,3.319,0.72c1.12,0.534,1.92,1.601,2.4,3.2c0.213,0.693,0.292,1.454,0.24,2.28
			c-0.054,0.827-0.188,1.693-0.4,2.6c1.013-1.172,2.04-2.292,3.08-3.359c1.04-1.066,2.093-2,3.16-2.801
			c1.066-0.8,2.106-1.439,3.12-1.92c1.013-0.479,2-0.72,2.96-0.72c2.08-0.053,3.626,0.854,4.64,2.72
			C-1306.224-807.153-1305.903-804.754-1306.276-801.821z"/>
		<path fill="#232021" d="M-1277.957-805.421c0-0.427,0.12-0.826,0.359-1.2c0.24-0.373,0.547-0.692,0.92-0.96
			c-0.267-0.641-0.693-0.96-1.279-0.96c-0.748-0.053-1.574,0.28-2.48,1c-0.907,0.72-1.88,1.76-2.92,3.12
			c-1.04,1.359-2.12,3.04-3.24,5.04c-1.119,2-2.239,4.228-3.359,6.68c-0.694,1.548-1.268,3.214-1.721,5
			c-0.453,1.787-0.707,3.494-0.76,5.12c-0.054,1.627,0.106,3.054,0.48,4.28c0.372,1.228,1.04,2.027,2,2.399
			c0.746,0.32,1.532,0.24,2.359-0.24c0.826-0.479,1.653-1.226,2.48-2.239c0.826-1.013,1.68-2.24,2.56-3.681
			c0.88-1.439,1.732-2.946,2.561-4.52c0.826-1.572,1.626-3.146,2.399-4.72c0.772-1.573,1.507-3.026,2.2-4.36
			c0.746-1.76,1.48-3.427,2.2-5c0.72-1.572,1.32-2.986,1.8-4.24c0.48-1.252,0.8-2.32,0.96-3.2s0.08-1.479-0.24-1.8
			c-0.373-0.32-0.199-0.692,0.521-1.12c0.72-0.426,1.612-0.666,2.68-0.72c1.066-0.053,2.173,0.188,3.32,0.72
			c1.146,0.534,1.96,1.601,2.44,3.2c0.479,1.548,0.399,3.428-0.24,5.64c-0.641,2.214-1.534,4.521-2.681,6.921
			c-1.147,2.399-2.373,4.773-3.68,7.119c-1.308,2.348-2.399,4.44-3.28,6.28c-0.88,1.84-1.387,3.308-1.52,4.4
			c-0.134,1.094,0.412,1.587,1.64,1.479c0.48-0.053,1.146-0.479,2-1.279c0.853-0.801,1.786-1.827,2.8-3.08
			c1.013-1.253,2.066-2.653,3.16-4.2c1.093-1.547,2.106-3.093,3.04-4.641c0.933-1.546,1.772-3.012,2.521-4.399
			c0.746-1.387,1.279-2.532,1.6-3.44c0.16-0.426,0.427-0.692,0.8-0.8c0.373-0.106,0.721-0.106,1.04,0
			c0.32,0.107,0.573,0.32,0.761,0.64c0.186,0.32,0.172,0.668-0.04,1.04c-0.428,0.908-1.04,2.147-1.841,3.721
			c-0.8,1.573-1.747,3.254-2.84,5.04c-1.094,1.787-2.279,3.587-3.56,5.399c-1.28,1.814-2.601,3.468-3.96,4.96
			c-1.36,1.494-2.734,2.721-4.12,3.681c-1.388,0.96-2.72,1.439-4,1.439c-2.027,0.107-3.548-0.72-4.561-2.479
			c-1.014-1.761-1.387-4-1.119-6.721c-1.014,1.654-2.08,3.16-3.2,4.521c-1.12,1.359-2.334,2.439-3.641,3.24
			c-1.307,0.8-2.693,1.279-4.159,1.439c-1.468,0.16-3.08-0.133-4.841-0.88c-2.134-0.853-3.666-2.106-4.6-3.76
			c-0.933-1.652-1.479-3.453-1.64-5.4c-0.16-1.946,0-3.973,0.479-6.08c0.48-2.106,1.067-4.04,1.76-5.8
			c1.28-3.252,2.707-6.04,4.28-8.36c1.572-2.319,3.24-4.212,5-5.68c1.76-1.466,3.572-2.52,5.44-3.16
			c1.866-0.64,3.76-0.933,5.68-0.88c0.64,0.054,1.32,0.174,2.04,0.36c0.72,0.188,1.387,0.493,2,0.92c0.612,0.428,1.133,1,1.56,1.72
			s0.641,1.614,0.641,2.68c0,1.174-0.268,1.975-0.8,2.4c-0.428,0.48-0.988,0.72-1.681,0.72c-0.64,0-1.214-0.212-1.72-0.64
			C-1277.705-804.167-1277.957-804.728-1277.957-805.421z"/>
		<path fill="#232021" d="M-1285.638-752.222c-0.052-0.479,0.014-1.054,0.2-1.72c0.188-0.667,0.654-1.374,1.4-2.12
			c0.854-0.854,1.88-1.627,3.08-2.319c1.199-0.694,2.453-1.36,3.76-2c1.308-0.641,2.587-1.294,3.84-1.96
			c1.254-0.668,2.334-1.4,3.24-2.2c0.8-2.294,1.84-4.947,3.12-7.96c1.279-3.013,2.64-6.133,4.08-9.36
			c1.439-3.227,2.867-6.426,4.279-9.6c1.414-3.173,2.641-6.066,3.681-8.681c1.04-2.612,1.813-4.826,2.319-6.64
			c0.507-1.813,0.573-2.96,0.2-3.44c-0.268-0.319-0.027-0.692,0.72-1.119s1.681-0.667,2.801-0.721
			c1.119-0.052,2.226,0.214,3.319,0.801c1.093,0.587,1.88,1.707,2.36,3.359c0.267,0.907,0.133,2.36-0.4,4.36
			s-1.279,4.254-2.239,6.76c-0.961,2.508-2.055,5.134-3.28,7.88c-1.228,2.748-2.4,5.334-3.521,7.76
			c-1.12,2.428-2.107,4.548-2.96,6.36c-0.853,1.813-1.386,3.066-1.6,3.76c1.92-1.279,3.92-3.08,6-5.399
			c2.08-2.32,4.026-4.746,5.84-7.28c1.813-2.532,3.412-5,4.8-7.4c1.387-2.399,2.347-4.319,2.88-5.76
			c0.16-0.479,0.427-0.786,0.801-0.92c0.372-0.133,0.72-0.146,1.04-0.04c0.319,0.107,0.572,0.32,0.76,0.64
			c0.186,0.32,0.2,0.668,0.04,1.04c-1.228,2.721-2.761,5.588-4.601,8.601c-1.84,3.014-3.854,5.907-6.04,8.68
			c-2.188,2.773-4.479,5.268-6.88,7.48c-2.399,2.212-4.746,3.906-7.04,5.08c-0.319,0.8-0.746,1.826-1.279,3.079
			s-1.08,2.521-1.641,3.801c-0.56,1.279-1.066,2.479-1.52,3.6s-0.786,1.946-1,2.48c-0.533,1.492-1.373,2.76-2.521,3.8
			c-1.146,1.04-2.439,1.84-3.88,2.399c-1.439,0.561-2.933,0.881-4.479,0.96c-1.547,0.08-2.986-0.079-4.32-0.479
			c-1.333-0.4-2.492-1.067-3.48-2C-1284.744-749.595-1285.37-750.781-1285.638-752.222z M-1271.237-760.941
			c-0.8,0.641-1.706,1.2-2.72,1.681c-1.013,0.479-2.026,0.96-3.04,1.439c-1.013,0.48-1.986,1.013-2.92,1.6
			c-0.933,0.587-1.693,1.28-2.28,2.08c-0.373,0.533-0.521,1.12-0.44,1.761c0.08,0.64,0.32,1.212,0.721,1.72
			c0.399,0.506,0.907,0.893,1.52,1.16c0.614,0.266,1.294,0.292,2.04,0.08c0.747-0.214,1.52-0.734,2.32-1.561
			c0.8-0.827,1.547-2.094,2.239-3.8c0.32-0.747,0.708-1.628,1.16-2.64C-1272.184-758.435-1271.718-759.608-1271.237-760.941z
			 M-1241.157-815.821c0,0.428-0.428,0.64-1.28,0.64c-0.854,0-1.773-0.199-2.76-0.6c-0.987-0.4-1.907-1.04-2.76-1.92
			c-0.854-0.88-1.28-1.986-1.28-3.32c0-0.372,0.16-0.866,0.479-1.479c0.32-0.612,0.681-1.267,1.08-1.96
			c0.4-0.692,0.761-1.333,1.08-1.92c0.32-0.587,0.48-1.04,0.48-1.36c0-0.372,0.399-0.56,1.2-0.56c0.8,0,1.692,0.213,2.68,0.64
			c0.986,0.428,1.88,1.067,2.68,1.92c0.8,0.854,1.2,1.947,1.2,3.28c0,0.319-0.147,0.773-0.44,1.359
			c-0.293,0.588-0.613,1.2-0.96,1.841c-0.347,0.64-0.667,1.279-0.96,1.92C-1241.011-816.701-1241.157-816.193-1241.157-815.821z"/>
		<path fill="#232021" d="M-1217.479-805.421c0-0.427,0.12-0.826,0.359-1.2c0.24-0.373,0.547-0.692,0.92-0.96
			c-0.267-0.641-0.693-0.96-1.279-0.96c-0.748-0.053-1.574,0.28-2.48,1c-0.907,0.72-1.88,1.76-2.92,3.12
			c-1.04,1.359-2.12,3.04-3.24,5.04c-1.119,2-2.239,4.228-3.359,6.68c-0.694,1.548-1.268,3.214-1.721,5
			c-0.453,1.787-0.707,3.494-0.76,5.12c-0.054,1.627,0.106,3.054,0.48,4.28c0.372,1.228,1.04,2.027,2,2.399
			c0.746,0.32,1.532,0.24,2.359-0.24c0.826-0.479,1.653-1.226,2.48-2.239c0.826-1.013,1.68-2.24,2.56-3.681
			c0.88-1.439,1.732-2.946,2.561-4.52c0.826-1.572,1.626-3.146,2.399-4.72c0.772-1.573,1.507-3.026,2.2-4.36
			c0.746-1.76,1.48-3.427,2.2-5c0.72-1.572,1.32-2.986,1.8-4.24c0.48-1.252,0.8-2.32,0.96-3.2s0.08-1.479-0.24-1.8
			c-0.373-0.32-0.199-0.692,0.521-1.12c0.72-0.426,1.612-0.666,2.68-0.72c1.066-0.053,2.173,0.188,3.32,0.72
			c1.146,0.534,1.96,1.601,2.44,3.2c0.479,1.548,0.399,3.428-0.24,5.64c-0.641,2.214-1.534,4.521-2.681,6.921
			c-1.147,2.399-2.373,4.773-3.68,7.119c-1.308,2.348-2.399,4.44-3.28,6.28c-0.88,1.84-1.387,3.308-1.52,4.4
			c-0.134,1.094,0.412,1.587,1.64,1.479c0.48-0.053,1.146-0.479,2-1.279c0.853-0.801,1.786-1.827,2.8-3.08
			c1.013-1.253,2.066-2.653,3.16-4.2c1.093-1.547,2.106-3.093,3.04-4.641c0.933-1.546,1.772-3.012,2.521-4.399
			c0.746-1.387,1.279-2.532,1.6-3.44c0.16-0.426,0.427-0.692,0.8-0.8c0.373-0.106,0.721-0.106,1.04,0
			c0.32,0.107,0.573,0.32,0.761,0.64c0.186,0.32,0.172,0.668-0.04,1.04c-0.428,0.908-1.04,2.147-1.841,3.721
			c-0.8,1.573-1.747,3.254-2.84,5.04c-1.094,1.787-2.279,3.587-3.56,5.399c-1.28,1.814-2.601,3.468-3.96,4.96
			c-1.36,1.494-2.734,2.721-4.12,3.681c-1.388,0.96-2.72,1.439-4,1.439c-2.027,0.107-3.548-0.72-4.561-2.479
			c-1.014-1.761-1.387-4-1.119-6.721c-1.014,1.654-2.08,3.16-3.2,4.521c-1.12,1.359-2.334,2.439-3.641,3.24
			c-1.307,0.8-2.693,1.279-4.159,1.439c-1.468,0.16-3.08-0.133-4.841-0.88c-2.134-0.853-3.666-2.106-4.6-3.76
			c-0.933-1.652-1.479-3.453-1.64-5.4c-0.16-1.946,0-3.973,0.479-6.08c0.48-2.106,1.067-4.04,1.76-5.8
			c1.28-3.252,2.707-6.04,4.28-8.36c1.572-2.319,3.24-4.212,5-5.68c1.76-1.466,3.572-2.52,5.44-3.16
			c1.866-0.64,3.76-0.933,5.68-0.88c0.64,0.054,1.32,0.174,2.04,0.36c0.72,0.188,1.387,0.493,2,0.92c0.612,0.428,1.133,1,1.56,1.72
			s0.641,1.614,0.641,2.68c0,1.174-0.268,1.975-0.8,2.4c-0.428,0.48-0.988,0.72-1.681,0.72c-0.64,0-1.214-0.212-1.72-0.64
			C-1217.227-804.167-1217.479-804.728-1217.479-805.421z"/>
		<path fill="#232021" d="M-1175.639-805.421c0-0.427,0.12-0.826,0.359-1.2c0.24-0.373,0.547-0.692,0.92-0.96
			c-0.267-0.641-0.693-0.96-1.279-0.96c-0.748-0.053-1.574,0.28-2.48,1c-0.907,0.72-1.88,1.76-2.92,3.12
			c-1.04,1.359-2.12,3.04-3.24,5.04c-1.119,2-2.239,4.228-3.359,6.68c-0.694,1.548-1.268,3.214-1.721,5
			c-0.453,1.787-0.707,3.494-0.76,5.12c-0.054,1.627,0.106,3.054,0.48,4.28c0.372,1.228,1.04,2.027,2,2.399
			c0.746,0.32,1.532,0.24,2.359-0.24c0.826-0.479,1.653-1.226,2.48-2.239c0.826-1.013,1.68-2.24,2.56-3.681
			c0.88-1.439,1.732-2.946,2.561-4.52c0.826-1.572,1.626-3.146,2.399-4.72c0.772-1.573,1.507-3.026,2.2-4.36
			c0.746-1.76,1.48-3.427,2.2-5c0.72-1.572,1.32-2.986,1.8-4.24c0.48-1.252,0.8-2.32,0.96-3.2s0.08-1.479-0.24-1.8
			c-0.373-0.32-0.199-0.692,0.521-1.12c0.72-0.426,1.612-0.666,2.68-0.72c1.066-0.053,2.173,0.188,3.32,0.72
			c1.146,0.534,1.96,1.601,2.44,3.2c0.479,1.548,0.399,3.428-0.24,5.64c-0.641,2.214-1.534,4.521-2.681,6.921
			c-1.147,2.399-2.373,4.773-3.68,7.119c-1.308,2.348-2.399,4.44-3.28,6.28c-0.88,1.84-1.387,3.308-1.52,4.4
			c-0.134,1.094,0.412,1.587,1.64,1.479c0.48-0.053,1.146-0.479,2-1.279c0.853-0.801,1.786-1.827,2.8-3.08
			c1.013-1.253,2.066-2.653,3.16-4.2c1.093-1.547,2.106-3.093,3.04-4.641c0.933-1.546,1.772-3.012,2.521-4.399
			c0.746-1.387,1.279-2.532,1.6-3.44c0.16-0.426,0.427-0.692,0.8-0.8c0.373-0.106,0.721-0.106,1.04,0
			c0.32,0.107,0.573,0.32,0.761,0.64c0.186,0.32,0.172,0.668-0.04,1.04c-0.428,0.908-1.04,2.147-1.841,3.721
			c-0.8,1.573-1.747,3.254-2.84,5.04c-1.094,1.787-2.279,3.587-3.56,5.399c-1.28,1.814-2.601,3.468-3.96,4.96
			c-1.36,1.494-2.734,2.721-4.12,3.681c-1.388,0.96-2.72,1.439-4,1.439c-2.027,0.107-3.548-0.72-4.561-2.479
			c-1.014-1.761-1.387-4-1.119-6.721c-1.014,1.654-2.08,3.16-3.2,4.521c-1.12,1.359-2.334,2.439-3.641,3.24
			c-1.307,0.8-2.693,1.279-4.159,1.439c-1.468,0.16-3.08-0.133-4.841-0.88c-2.134-0.853-3.666-2.106-4.6-3.76
			c-0.933-1.652-1.479-3.453-1.64-5.4c-0.16-1.946,0-3.973,0.479-6.08c0.48-2.106,1.067-4.04,1.76-5.8
			c1.28-3.252,2.707-6.04,4.28-8.36c1.572-2.319,3.24-4.212,5-5.68c1.76-1.466,3.572-2.52,5.44-3.16
			c1.866-0.64,3.76-0.933,5.68-0.88c0.64,0.054,1.32,0.174,2.04,0.36c0.72,0.188,1.387,0.493,2,0.92c0.612,0.428,1.133,1,1.56,1.72
			s0.641,1.614,0.641,2.68c0,1.174-0.268,1.975-0.8,2.4c-0.428,0.48-0.988,0.72-1.681,0.72c-0.64,0-1.214-0.212-1.72-0.64
			C-1175.387-804.167-1175.639-804.728-1175.639-805.421z"/>
	</g>
	<path fill="#FFD284" d="M-2406.295-948.868c-0.333-0.266-0.639-0.598-0.917-0.992c0.316,1.154,0.641,2.306,0.967,3.457
		C-2406.261-947.226-2406.284-948.046-2406.295-948.868z"/>
	<path fill="#FFD284" d="M-2431.215-1021.546c-0.143-1.23-0.272-2.46-0.411-3.69c-0.382,0.343-0.749,0.699-1.114,1.058
		C-2432.234-1023.3-2431.729-1022.42-2431.215-1021.546z"/>
	<path fill="#FFD284" d="M-2229.536-655.895c-27.653-27.905-56.687-54.41-86.463-80.05c-25.586-15.05-50.375-31.276-72.675-51.162
		c-0.183-0.137-0.362-0.288-0.535-0.467c-0.254-0.228-0.466-0.465-0.642-0.708c-5.848-6.512-8.244-15.928-9.878-24.277
		c-0.74-3.78-1.365-7.577-1.897-11.388c-12.147-25.156-11.148-56.86-13.67-83.741c-3.555-37.887-16.375-74.089-22.853-111.422
		c-0.399-0.673-0.803-1.343-1.198-2.019c-2.387,4.726-3.702,10.009-3.702,15.486v217.977c0,12.308,6.568,23.679,17.223,29.832
		l188.768,108.983c4.254,2.454,8.902,3.913,13.625,4.409C-2225.584-648.18-2227.616-652.002-2229.536-655.895z"/>
	<path fill="#F1AB1E" d="M-2881.831-334.889c-0.023-0.018-0.044-0.039-0.067-0.057l-258.665-147.404
		c-2.003-0.535-3.955-1.272-5.871-2.096c-4.983,0.121-9.853,0.509-14.649,1.627l-263.559,147.721
		c-2.132,2.433-3.652,5.231-4.759,8.215l-1.067,300.135c0.618,3.393,1.557,6.726,2.96,9.824c0.011,0.021,0.022,0.044,0.034,0.065
		l262.69,149.698c1.28,0.439,2.568,0.84,3.862,1.208c0.514-0.184,1.09-0.29,1.735-0.29h12.138c3-1.655,6.32-2.665,9.224-4.513
		c1.263-0.804,2.5-0.938,3.586-0.641l237.767-133.264c0.324-0.307,0.707-0.588,1.168-0.829c9.207-4.818,15.281-12.538,19.879-21.395
		c0.094-0.384,0.196-0.764,0.31-1.142l1.052-295.448C-2875.99-327.83-2878.169-332.082-2881.831-334.889z M-2908.125-44.942
		c-0.101,0.332-0.19,0.667-0.273,1.005c-4.05,7.802-9.401,14.603-17.511,18.847c-0.407,0.212-0.744,0.46-1.03,0.73l-209.448,117.392
		c-0.957-0.262-2.046-0.144-3.159,0.564c-2.558,1.627-5.483,2.517-8.125,3.975h-10.692c-0.569,0-1.076,0.094-1.528,0.256
		c-1.14-0.324-2.274-0.677-3.402-1.064l-231.404-131.869c-0.01-0.019-0.02-0.038-0.03-0.058c-1.236-2.729-2.063-5.665-2.607-8.654
		l0.94-264.388c0.976-2.627,2.314-5.094,4.193-7.236l232.169-130.127c4.225-0.985,8.515-1.326,12.904-1.434
		c1.688,0.726,3.407,1.374,5.172,1.848L-2914.1-315.31c0.021,0.017,0.039,0.034,0.06,0.05c3.226,2.473,5.145,6.219,6.841,10.056
		L-2908.125-44.942z"/>
	<path fill="#F1AB1E" d="M530.435,126.83c-0.024-0.018-0.047-0.038-0.068-0.055L267.561-13.115c-2.018-0.478-3.99-1.159-5.929-1.927
		c-4.977,0.265-9.834,0.793-14.596,2.05L-12.158,142.261c-2.061,2.493-3.5,5.334-4.521,8.349l7.581,300.04
		c0.715,3.374,1.75,6.679,3.241,9.735c0.013,0.021,0.024,0.044,0.036,0.064l266.895,142.066c1.292,0.403,2.592,0.767,3.896,1.098
		c0.508-0.199,1.081-0.322,1.726-0.341l12.133-0.35c2.951-1.74,6.241-2.847,9.09-4.776c1.239-0.84,2.473-1.01,3.566-0.744
		l233.828-140.059c0.315-0.316,0.69-0.607,1.144-0.862c9.064-5.082,14.914-12.974,19.255-21.958c0.082-0.387,0.174-0.77,0.276-1.15
		l-7.462-295.356C536.477,133.717,534.176,129.529,530.435,126.83z M512.504,417.413c-0.09,0.335-0.17,0.672-0.243,1.012
		c-3.823,7.915-8.977,14.868-16.96,19.345c-0.401,0.224-0.73,0.48-1.009,0.76L288.313,561.906c-0.963-0.234-2.048-0.085-3.141,0.655
		c-2.51,1.7-5.408,2.673-8.006,4.206l-10.69,0.309c-0.567,0.017-1.071,0.125-1.519,0.301c-1.149-0.292-2.294-0.611-3.432-0.967
		L26.418,441.264c-0.011-0.02-0.021-0.037-0.031-0.058c-1.314-2.69-2.226-5.603-2.855-8.575l-6.679-264.305
		c0.899-2.654,2.167-5.158,3.982-7.354L249.158,24.209c4.194-1.106,8.473-1.57,12.857-1.804c1.709,0.676,3.445,1.274,5.224,1.697
		L498.742,147.33c0.021,0.016,0.04,0.033,0.062,0.048c3.295,2.379,5.322,6.067,7.128,9.854L512.504,417.413z"/>
	<path fill="#F1AB1E" d="M1113.266-1560.7c-0.023-0.018-0.043-0.039-0.066-0.057l-258.664-147.404
		c-2.004-0.536-3.955-1.273-5.871-2.097c-4.983,0.122-9.854,0.509-14.65,1.627l-263.559,147.721
		c-2.133,2.433-3.652,5.231-4.76,8.215l-1.066,300.135c0.617,3.393,1.557,6.726,2.959,9.824c0.012,0.021,0.023,0.044,0.034,0.065
		l262.69,149.698c1.28,0.439,2.568,0.84,3.861,1.208c0.515-0.184,1.09-0.29,1.735-0.29h12.138c3-1.655,6.32-2.665,9.225-4.513
		c1.264-0.804,2.5-0.938,3.586-0.641l237.767-133.264c0.324-0.307,0.707-0.588,1.169-0.829c9.206-4.818,15.281-12.538,19.879-21.395
		c0.094-0.384,0.195-0.764,0.309-1.142l1.053-295.449C1119.107-1553.641,1116.928-1557.894,1113.266-1560.7z M1086.973-1270.754
		c-0.102,0.332-0.191,0.667-0.273,1.005c-4.051,7.802-9.401,14.603-17.512,18.847c-0.406,0.212-0.743,0.46-1.029,0.73
		L858.711-1132.78c-0.957-0.262-2.047-0.144-3.159,0.564c-2.558,1.627-5.483,2.517-8.126,3.975h-10.691
		c-0.569,0-1.076,0.094-1.529,0.256c-1.139-0.324-2.273-0.677-3.401-1.064L600.4-1260.919c-0.011-0.019-0.021-0.038-0.03-0.058
		c-1.236-2.729-2.063-5.665-2.607-8.654l0.94-264.388c0.975-2.627,2.314-5.094,4.192-7.237l232.169-130.126
		c4.225-0.985,8.516-1.326,12.904-1.434c1.688,0.726,3.407,1.375,5.172,1.848l227.857,129.847c0.02,0.017,0.038,0.034,0.059,0.05
		c3.227,2.472,5.146,6.218,6.842,10.055L1086.973-1270.754z"/>
	<path id="hexagon_2_" fill="#F1AB1E" d="M520.943,140.594c-0.023-0.019-0.041-0.036-0.063-0.054L273.818,1.956
		c-1.91-0.497-3.77-1.184-5.6-1.956c-4.74,0.148-9.371,0.548-13.928,1.643L4.475,143.895c-2.014,2.327-3.441,4.998-4.475,7.846
		l0.918,285.575c0.609,3.224,1.525,6.39,2.879,9.327c0.012,0.021,0.023,0.043,0.033,0.063l250.908,140.739
		c1.219,0.412,2.447,0.784,3.68,1.125c0.488-0.178,1.037-0.284,1.65-0.288l11.549-0.078c2.844-1.595,5.996-2.577,8.748-4.353
		c1.197-0.772,2.371-0.909,3.406-0.633l225.369-128.328c0.307-0.293,0.67-0.563,1.107-0.797
		c8.729-4.644,14.457-12.027,18.775-20.483c0.088-0.366,0.182-0.729,0.285-1.089l-0.9-281.117
		C526.549,147.271,524.445,143.239,520.943,140.594z"/>
	<path id="hexagon_3_" fill="#F1AB1E" d="M-3509.49-1369.763c-0.023-0.018-0.043-0.038-0.066-0.056l-256.155-145.974
		c-1.984-0.531-3.917-1.26-5.814-2.076c-4.935,0.121-9.757,0.504-14.507,1.612l-261.002,146.288
		c-2.112,2.409-3.617,5.181-4.713,8.135l-1.057,297.223c0.612,3.36,1.542,6.661,2.932,9.729c0.011,0.022,0.022,0.043,0.033,0.065
		l260.142,148.245c1.268,0.436,2.543,0.832,3.825,1.197c0.509-0.183,1.079-0.288,1.718-0.288h12.02
		c2.971-1.64,6.259-2.64,9.135-4.468c1.251-0.797,2.476-0.93,3.551-0.635l235.46-131.971c0.32-0.304,0.7-0.583,1.157-0.822
		c9.117-4.771,15.133-12.416,19.686-21.187c0.093-0.379,0.194-0.756,0.307-1.13l1.042-292.583
		C-3503.705-1362.772-3505.863-1366.983-3509.49-1369.763z"/>
	
		<image overflow="visible" width="1300" height="1390" xlink:href="flowing-honey-vector-element-57957342.jpg"  transform="matrix(0.6358 0 0 0.6358 -211.7637 -1990.2656)">
	</image>
	<g display="none">
		<g display="inline">
			<path fill="#F1AB1E" d="M-1736.866-1006.865c-12.944,15.064-15.688,35.209-19.667,53.975
				c-5.005,23.611-11.733,46.709-15.496,70.581c-2.935,18.609-7.418,38.809-2.762,57.479c4.576,18.346,22.915,29.868,36.289,41.469
				c2.423,2.103,5.976-1.419,3.535-3.535c-12.998-11.275-29.883-21.837-35.003-39.263c-2.635-8.969-1.82-19.014-0.98-28.187
				c0.901-9.836,2.646-19.576,4.164-29.329c3.434-22.058,10.024-43.313,14.473-65.152c3.764-18.483,6.248-39.682,18.982-54.503
				C-1731.241-1005.762-1734.762-1009.315-1736.866-1006.865L-1736.866-1006.865z"/>
		</g>
	</g>
	<path id="hexagon_1_" fill="#F1AB1E" d="M-2895.978-332.334c-0.023-0.019-0.041-0.036-0.063-0.054l-247.063-138.584
		c-1.91-0.497-3.77-1.184-5.6-1.956c-4.74,0.148-9.371,0.548-13.928,1.643l-249.816,142.252c-2.014,2.327-3.441,4.998-4.475,7.846
		l0.918,285.575c0.609,3.224,1.525,6.39,2.879,9.327c0.012,0.021,0.023,0.043,0.033,0.063l250.908,140.739
		c1.219,0.412,2.447,0.784,3.68,1.125c0.488-0.178,1.037-0.284,1.65-0.288l11.549-0.078c2.844-1.595,5.996-2.577,8.748-4.353
		c1.197-0.772,2.371-0.909,3.406-0.633l225.369-128.328c0.307-0.293,0.67-0.563,1.107-0.797
		c8.729-4.644,14.457-12.027,18.775-20.483c0.088-0.366,0.182-0.729,0.285-1.089l-0.9-281.117
		C-2890.372-325.656-2892.476-329.688-2895.978-332.334z"/>
	<g>
		<linearGradient id="SVGID_8_" gradientUnits="userSpaceOnUse" x1="-62.7979" y1="59.6426" x2="-31.9551" y2="59.6426">
			<stop  offset="0" style="stop-color:#F7941E"/>
			<stop  offset="1" style="stop-color:#FDB913"/>
		</linearGradient>
		<path fill="url(#SVGID_8_)" d="M-47.305-0.705c0,17.637-36.744,146.973,2.939,129.336c17.637-8.818,11.758-49.971,10.287-64.668
			c-2.939-19.106-5.879-60.259-14.697-74.956"/>
		<g>
			<path fill="#FCB22C" d="M-49.805-0.705c-0.172,17.384-35.48,138.234,0.781,133.314c25.166-3.415,19.963-44.399,18.197-61.557
				c-1.379-13.375-3.191-26.742-5.002-40.065c-1.932-14.204-3.475-30.583-10.787-43.242c-1.613-2.79-5.934-0.273-4.318,2.523
				c4.691,8.121,6.336,18.055,7.979,27.162c2.02,11.188,3.305,22.499,4.686,33.779c2.104,17.206,4.857,34.534,3.414,51.918
				c-0.67,8.059-2.545,18.345-10.01,22.935c-2.998,1.845-7.578,2.662-10.391,0.115c-3.074-2.786-3.945-7.836-4.465-11.727
				c-0.855-6.39-0.658-12.926-0.281-19.343c1.123-19.138,4.764-38.126,8.4-56.915c1.543-7.979,3.17-15.942,4.666-23.931
				c0.914-4.889,2.08-9.972,2.131-14.968C-44.773-3.931-49.773-3.928-49.805-0.705L-49.805-0.705z"/>
		</g>
	</g>
	<g>
		<linearGradient id="SVGID_9_" gradientUnits="userSpaceOnUse" x1="-3331.5298" y1="95.6699" x2="-3300.6865" y2="95.6699">
			<stop  offset="0" style="stop-color:#F7941E"/>
			<stop  offset="1" style="stop-color:#FDB913"/>
		</linearGradient>
		<path fill="url(#SVGID_9_)" d="M-3316.037,35.321c0,17.637-36.743,146.973,2.939,129.336
			c17.637-8.818,11.758-49.971,10.288-64.668c-2.939-19.106-5.879-60.259-14.697-74.956"/>
		<g>
			<path fill="#FCB22C" d="M-3318.537,35.321c-0.172,17.384-35.48,138.234,0.782,133.314c25.166-3.415,19.962-44.399,18.196-61.557
				c-1.378-13.375-3.191-26.742-5.002-40.065c-1.931-14.204-3.475-30.583-10.787-43.242c-1.612-2.79-5.934-0.273-4.318,2.523
				c4.691,8.121,6.336,18.055,7.979,27.162c2.019,11.188,3.305,22.499,4.685,33.779c2.104,17.206,4.858,34.534,3.414,51.918
				c-0.67,8.059-2.545,18.345-10.009,22.935c-2.999,1.845-7.579,2.662-10.391,0.115c-3.075-2.786-3.945-7.836-4.466-11.727
				c-0.855-6.39-0.657-12.926-0.281-19.343c1.123-19.138,4.765-38.126,8.4-56.915c1.544-7.979,3.171-15.942,4.666-23.931
				c0.914-4.889,2.081-9.972,2.131-14.968C-3313.504,32.096-3318.504,32.099-3318.537,35.321L-3318.537,35.321z"/>
		</g>
	</g>
	<g>
	</g>
	<g>
	</g>
	<g>
	</g>
	<g>
	</g>
	<g>
	</g>
	<g>
	</g>
</g>
</svg>
